<mxfile host="Electron" modified="2024-04-12T20:48:58.136Z" agent="Mozilla/5.0 (Windows NT 10.0; Win64; x64) AppleWebKit/537.36 (KHTML, like Gecko) draw.io/24.1.0 Chrome/120.0.6099.109 Electron/28.1.0 Safari/537.36" etag="2HCQIdX2IR1_5Oo_dTlJ" version="24.1.0" type="device">
  <diagram name="PÃ¡gina-1" id="meDlshTXVaSc6QnfuSsk">
    <mxGraphModel dx="4475" dy="3028" grid="1" gridSize="10" guides="1" tooltips="1" connect="1" arrows="1" fold="1" page="1" pageScale="1" pageWidth="827" pageHeight="1169" math="0" shadow="0">
      <root>
        <mxCell id="0" />
        <mxCell id="1" parent="0" />
        <mxCell id="vwYCaHOfWbuZlIVckbCC-2" value="tbproductos" style="rounded=0;whiteSpace=wrap;html=1;" parent="1" vertex="1">
          <mxGeometry x="-1300" y="1109" width="140" height="60" as="geometry" />
        </mxCell>
        <mxCell id="vwYCaHOfWbuZlIVckbCC-3" value="" style="endArrow=none;html=1;rounded=0;entryX=0;entryY=0.5;entryDx=0;entryDy=0;exitX=1;exitY=0.5;exitDx=0;exitDy=0;" parent="1" source="vwYCaHOfWbuZlIVckbCC-4" target="vwYCaHOfWbuZlIVckbCC-2" edge="1">
          <mxGeometry width="50" height="50" relative="1" as="geometry">
            <mxPoint x="-1370" y="1130" as="sourcePoint" />
            <mxPoint x="-1360" y="1130" as="targetPoint" />
          </mxGeometry>
        </mxCell>
        <mxCell id="vwYCaHOfWbuZlIVckbCC-4" value="productos_reserva" style="ellipse;whiteSpace=wrap;html=1;align=center;" parent="1" vertex="1">
          <mxGeometry x="-1473.75" y="1114" width="110" height="50" as="geometry" />
        </mxCell>
        <mxCell id="vwYCaHOfWbuZlIVckbCC-5" value="&lt;span style=&quot;text-decoration-line: underline;&quot;&gt;id_productos&lt;/span&gt;" style="ellipse;whiteSpace=wrap;html=1;align=center;" parent="1" vertex="1">
          <mxGeometry x="-1100" y="1109" width="110" height="60" as="geometry" />
        </mxCell>
        <mxCell id="vwYCaHOfWbuZlIVckbCC-6" value="" style="endArrow=none;html=1;rounded=0;entryX=0;entryY=0.5;entryDx=0;entryDy=0;exitX=1;exitY=0.5;exitDx=0;exitDy=0;" parent="1" source="vwYCaHOfWbuZlIVckbCC-2" target="vwYCaHOfWbuZlIVckbCC-5" edge="1">
          <mxGeometry width="50" height="50" relative="1" as="geometry">
            <mxPoint x="-1270" y="1130" as="sourcePoint" />
            <mxPoint x="-1220" y="1080" as="targetPoint" />
          </mxGeometry>
        </mxCell>
        <mxCell id="vwYCaHOfWbuZlIVckbCC-7" value="productos_agotados" style="ellipse;whiteSpace=wrap;html=1;align=center;" parent="1" vertex="1">
          <mxGeometry x="-1530" y="1010" width="110" height="50" as="geometry" />
        </mxCell>
        <mxCell id="vwYCaHOfWbuZlIVckbCC-8" value="" style="endArrow=none;html=1;rounded=0;entryX=0.5;entryY=1;entryDx=0;entryDy=0;exitX=0.184;exitY=0.02;exitDx=0;exitDy=0;exitPerimeter=0;" parent="1" source="vwYCaHOfWbuZlIVckbCC-2" target="vwYCaHOfWbuZlIVckbCC-7" edge="1">
          <mxGeometry width="50" height="50" relative="1" as="geometry">
            <mxPoint x="-1320" y="1110" as="sourcePoint" />
            <mxPoint x="-1270" y="1060" as="targetPoint" />
            <Array as="points">
              <mxPoint x="-1274" y="1080" />
              <mxPoint x="-1475" y="1080" />
            </Array>
          </mxGeometry>
        </mxCell>
        <mxCell id="vwYCaHOfWbuZlIVckbCC-11" value="" style="endArrow=none;html=1;rounded=0;entryX=0.364;entryY=1.038;entryDx=0;entryDy=0;exitX=0.5;exitY=0;exitDx=0;exitDy=0;entryPerimeter=0;" parent="1" source="vwYCaHOfWbuZlIVckbCC-12" target="vwYCaHOfWbuZlIVckbCC-2" edge="1">
          <mxGeometry width="50" height="50" relative="1" as="geometry">
            <mxPoint x="-1220" y="1270" as="sourcePoint" />
            <mxPoint x="-1170" y="1220" as="targetPoint" />
            <Array as="points">
              <mxPoint x="-1365" y="1230" />
              <mxPoint x="-1249" y="1230" />
            </Array>
          </mxGeometry>
        </mxCell>
        <mxCell id="vwYCaHOfWbuZlIVckbCC-12" value="imagen_producto" style="ellipse;whiteSpace=wrap;html=1;align=center;" parent="1" vertex="1">
          <mxGeometry x="-1420" y="1300" width="110" height="50" as="geometry" />
        </mxCell>
        <mxCell id="vwYCaHOfWbuZlIVckbCC-16" value="descripcion_producto" style="ellipse;whiteSpace=wrap;html=1;align=center;" parent="1" vertex="1">
          <mxGeometry x="-1040" y="1010" width="130" height="50" as="geometry" />
        </mxCell>
        <mxCell id="vwYCaHOfWbuZlIVckbCC-17" value="" style="endArrow=none;html=1;rounded=0;entryX=0.5;entryY=1;entryDx=0;entryDy=0;exitX=0.854;exitY=-0.006;exitDx=0;exitDy=0;exitPerimeter=0;" parent="1" source="vwYCaHOfWbuZlIVckbCC-2" target="vwYCaHOfWbuZlIVckbCC-16" edge="1">
          <mxGeometry width="50" height="50" relative="1" as="geometry">
            <mxPoint x="-1110" y="1110" as="sourcePoint" />
            <mxPoint x="-1060" y="1060" as="targetPoint" />
            <Array as="points">
              <mxPoint x="-1180" y="1080" />
              <mxPoint x="-975" y="1080" />
            </Array>
          </mxGeometry>
        </mxCell>
        <mxCell id="vwYCaHOfWbuZlIVckbCC-21" value="precio_producto" style="ellipse;whiteSpace=wrap;html=1;align=center;" parent="1" vertex="1">
          <mxGeometry x="-1500" y="1226" width="110" height="50" as="geometry" />
        </mxCell>
        <mxCell id="vwYCaHOfWbuZlIVckbCC-22" value="costo_produccion_&lt;br&gt;producto" style="ellipse;whiteSpace=wrap;html=1;align=center;" parent="1" vertex="1">
          <mxGeometry x="-1075" y="1226" width="110" height="50" as="geometry" />
        </mxCell>
        <mxCell id="vwYCaHOfWbuZlIVckbCC-27" value="" style="endArrow=none;html=1;rounded=0;exitX=0.5;exitY=0;exitDx=0;exitDy=0;entryX=0.181;entryY=1.012;entryDx=0;entryDy=0;entryPerimeter=0;" parent="1" source="vwYCaHOfWbuZlIVckbCC-21" target="vwYCaHOfWbuZlIVckbCC-2" edge="1">
          <mxGeometry width="50" height="50" relative="1" as="geometry">
            <mxPoint x="-1450.0000000000002" y="1196" as="sourcePoint" />
            <mxPoint x="-1290" y="1170" as="targetPoint" />
            <Array as="points">
              <mxPoint x="-1445" y="1200" />
              <mxPoint x="-1275" y="1200" />
            </Array>
          </mxGeometry>
        </mxCell>
        <mxCell id="vwYCaHOfWbuZlIVckbCC-28" value="" style="endArrow=none;html=1;rounded=0;entryX=0.899;entryY=1.05;entryDx=0;entryDy=0;entryPerimeter=0;exitX=0.5;exitY=0;exitDx=0;exitDy=0;" parent="1" source="vwYCaHOfWbuZlIVckbCC-22" target="vwYCaHOfWbuZlIVckbCC-2" edge="1">
          <mxGeometry width="50" height="50" relative="1" as="geometry">
            <mxPoint x="-1160" y="1250" as="sourcePoint" />
            <mxPoint x="-1110" y="1200" as="targetPoint" />
            <Array as="points">
              <mxPoint x="-1020" y="1200" />
              <mxPoint x="-1174" y="1200" />
            </Array>
          </mxGeometry>
        </mxCell>
        <mxCell id="vwYCaHOfWbuZlIVckbCC-36" value="tb_detalle_cotizacion" style="rounded=0;whiteSpace=wrap;html=1;" parent="1" vertex="1">
          <mxGeometry x="-486" y="380" width="120" height="60" as="geometry" />
        </mxCell>
        <mxCell id="vwYCaHOfWbuZlIVckbCC-37" value="costo_envio" style="ellipse;whiteSpace=wrap;html=1;align=center;" parent="1" vertex="1">
          <mxGeometry x="-726" y="168" width="110" height="50" as="geometry" />
        </mxCell>
        <mxCell id="vwYCaHOfWbuZlIVckbCC-41" value="estado" style="ellipse;whiteSpace=wrap;html=1;align=center;" parent="1" vertex="1">
          <mxGeometry x="-601.87" y="578" width="110" height="50" as="geometry" />
        </mxCell>
        <mxCell id="vwYCaHOfWbuZlIVckbCC-42" value="fecha_expiracion" style="ellipse;whiteSpace=wrap;html=1;align=center;" parent="1" vertex="1">
          <mxGeometry x="-237" y="308" width="110" height="50" as="geometry" />
        </mxCell>
        <mxCell id="vwYCaHOfWbuZlIVckbCC-43" value="id_envio" style="ellipse;whiteSpace=wrap;html=1;align=center;" parent="1" vertex="1">
          <mxGeometry x="-257" y="578" width="128.5" height="50" as="geometry" />
        </mxCell>
        <mxCell id="vwYCaHOfWbuZlIVckbCC-45" value="impuestos_envio" style="ellipse;whiteSpace=wrap;html=1;align=center;" parent="1" vertex="1">
          <mxGeometry x="-410" y="28" width="110" height="50" as="geometry" />
        </mxCell>
        <mxCell id="vwYCaHOfWbuZlIVckbCC-49" value="mensaje_garantia" style="ellipse;whiteSpace=wrap;html=1;align=center;" parent="1" vertex="1">
          <mxGeometry x="-726" y="308" width="110" height="50" as="geometry" />
        </mxCell>
        <mxCell id="vwYCaHOfWbuZlIVckbCC-51" value="imagen_producto" style="ellipse;whiteSpace=wrap;html=1;align=center;" parent="1" vertex="1">
          <mxGeometry x="-626" y="108" width="110" height="50" as="geometry" />
        </mxCell>
        <mxCell id="vwYCaHOfWbuZlIVckbCC-52" value="subtotal" style="ellipse;whiteSpace=wrap;html=1;align=center;" parent="1" vertex="1">
          <mxGeometry x="-555" y="28" width="110" height="50" as="geometry" />
        </mxCell>
        <mxCell id="vwYCaHOfWbuZlIVckbCC-53" value="rango_impuesto" style="ellipse;whiteSpace=wrap;html=1;align=center;" parent="1" vertex="1">
          <mxGeometry x="-716" y="578" width="110" height="50" as="geometry" />
        </mxCell>
        <mxCell id="vwYCaHOfWbuZlIVckbCC-55" value="total" style="ellipse;whiteSpace=wrap;html=1;align=center;" parent="1" vertex="1">
          <mxGeometry x="-336" y="108" width="110" height="50" as="geometry" />
        </mxCell>
        <mxCell id="vwYCaHOfWbuZlIVckbCC-57" value="" style="endArrow=none;html=1;rounded=0;exitX=1;exitY=0.5;exitDx=0;exitDy=0;entryX=0;entryY=0.25;entryDx=0;entryDy=0;" parent="1" source="vwYCaHOfWbuZlIVckbCC-49" target="vwYCaHOfWbuZlIVckbCC-36" edge="1">
          <mxGeometry width="50" height="50" relative="1" as="geometry">
            <mxPoint x="-536" y="388" as="sourcePoint" />
            <mxPoint x="-486" y="338" as="targetPoint" />
            <Array as="points">
              <mxPoint x="-606" y="333" />
              <mxPoint x="-606" y="395" />
            </Array>
          </mxGeometry>
        </mxCell>
        <mxCell id="vwYCaHOfWbuZlIVckbCC-59" value="" style="endArrow=none;html=1;rounded=0;exitX=0.097;exitY=-0.023;exitDx=0;exitDy=0;exitPerimeter=0;entryX=1;entryY=0.5;entryDx=0;entryDy=0;" parent="1" source="vwYCaHOfWbuZlIVckbCC-36" target="vwYCaHOfWbuZlIVckbCC-37" edge="1">
          <mxGeometry width="50" height="50" relative="1" as="geometry">
            <mxPoint x="-476" y="368" as="sourcePoint" />
            <mxPoint x="-406" y="318" as="targetPoint" />
            <Array as="points">
              <mxPoint x="-474" y="358" />
              <mxPoint x="-556" y="358" />
              <mxPoint x="-556" y="193" />
            </Array>
          </mxGeometry>
        </mxCell>
        <mxCell id="vwYCaHOfWbuZlIVckbCC-60" value="" style="endArrow=none;html=1;rounded=0;exitX=0.25;exitY=0;exitDx=0;exitDy=0;entryX=1;entryY=0.5;entryDx=0;entryDy=0;" parent="1" source="vwYCaHOfWbuZlIVckbCC-36" target="vwYCaHOfWbuZlIVckbCC-51" edge="1">
          <mxGeometry width="50" height="50" relative="1" as="geometry">
            <mxPoint x="-396" y="358" as="sourcePoint" />
            <mxPoint x="-346" y="308" as="targetPoint" />
            <Array as="points">
              <mxPoint x="-456" y="338" />
              <mxPoint x="-516" y="338" />
            </Array>
          </mxGeometry>
        </mxCell>
        <mxCell id="vwYCaHOfWbuZlIVckbCC-61" value="" style="endArrow=none;html=1;rounded=0;exitX=0.66;exitY=0.01;exitDx=0;exitDy=0;entryX=0.5;entryY=1;entryDx=0;entryDy=0;exitPerimeter=0;" parent="1" source="vwYCaHOfWbuZlIVckbCC-36" target="vwYCaHOfWbuZlIVckbCC-45" edge="1">
          <mxGeometry width="50" height="50" relative="1" as="geometry">
            <mxPoint x="-416" y="368" as="sourcePoint" />
            <mxPoint x="-426" y="168" as="targetPoint" />
            <Array as="points">
              <mxPoint x="-406.5" y="188" />
              <mxPoint x="-353.5" y="188" />
            </Array>
          </mxGeometry>
        </mxCell>
        <mxCell id="vwYCaHOfWbuZlIVckbCC-62" value="" style="endArrow=none;html=1;rounded=0;exitX=0.75;exitY=0;exitDx=0;exitDy=0;entryX=0;entryY=0.5;entryDx=0;entryDy=0;" parent="1" source="vwYCaHOfWbuZlIVckbCC-36" target="vwYCaHOfWbuZlIVckbCC-55" edge="1">
          <mxGeometry width="50" height="50" relative="1" as="geometry">
            <mxPoint x="-316" y="308" as="sourcePoint" />
            <mxPoint x="-266" y="258" as="targetPoint" />
            <Array as="points">
              <mxPoint x="-396" y="338" />
              <mxPoint x="-336" y="338" />
            </Array>
          </mxGeometry>
        </mxCell>
        <mxCell id="vwYCaHOfWbuZlIVckbCC-64" value="" style="endArrow=none;html=1;rounded=0;exitX=1;exitY=0.25;exitDx=0;exitDy=0;entryX=0;entryY=0.5;entryDx=0;entryDy=0;" parent="1" source="vwYCaHOfWbuZlIVckbCC-36" target="vwYCaHOfWbuZlIVckbCC-42" edge="1">
          <mxGeometry width="50" height="50" relative="1" as="geometry">
            <mxPoint x="-236" y="378" as="sourcePoint" />
            <mxPoint x="-246" y="258" as="targetPoint" />
            <Array as="points">
              <mxPoint x="-260" y="395" />
              <mxPoint x="-260" y="333" />
            </Array>
          </mxGeometry>
        </mxCell>
        <mxCell id="vwYCaHOfWbuZlIVckbCC-68" value="" style="endArrow=none;html=1;rounded=0;exitX=0.5;exitY=0;exitDx=0;exitDy=0;entryX=0.095;entryY=1.028;entryDx=0;entryDy=0;entryPerimeter=0;" parent="1" source="vwYCaHOfWbuZlIVckbCC-53" target="vwYCaHOfWbuZlIVckbCC-36" edge="1">
          <mxGeometry width="50" height="50" relative="1" as="geometry">
            <mxPoint x="-456" y="548" as="sourcePoint" />
            <mxPoint x="-406" y="498" as="targetPoint" />
            <Array as="points">
              <mxPoint x="-661" y="558" />
              <mxPoint x="-556" y="558" />
              <mxPoint x="-476" y="558" />
            </Array>
          </mxGeometry>
        </mxCell>
        <mxCell id="vwYCaHOfWbuZlIVckbCC-69" value="" style="endArrow=none;html=1;rounded=0;exitX=0.5;exitY=0;exitDx=0;exitDy=0;entryX=0.339;entryY=1.028;entryDx=0;entryDy=0;entryPerimeter=0;" parent="1" source="vwYCaHOfWbuZlIVckbCC-41" target="vwYCaHOfWbuZlIVckbCC-36" edge="1">
          <mxGeometry width="50" height="50" relative="1" as="geometry">
            <mxPoint x="-486" y="578" as="sourcePoint" />
            <mxPoint x="-436" y="528" as="targetPoint" />
            <Array as="points">
              <mxPoint x="-547" y="568" />
              <mxPoint x="-446" y="568" />
            </Array>
          </mxGeometry>
        </mxCell>
        <mxCell id="vwYCaHOfWbuZlIVckbCC-71" value="" style="endArrow=none;html=1;rounded=0;entryX=0.914;entryY=1.019;entryDx=0;entryDy=0;entryPerimeter=0;exitX=0.5;exitY=0;exitDx=0;exitDy=0;" parent="1" source="vwYCaHOfWbuZlIVckbCC-43" target="vwYCaHOfWbuZlIVckbCC-36" edge="1">
          <mxGeometry width="50" height="50" relative="1" as="geometry">
            <mxPoint x="-296" y="548" as="sourcePoint" />
            <mxPoint x="-246" y="498" as="targetPoint" />
            <Array as="points">
              <mxPoint x="-193" y="558" />
              <mxPoint x="-376" y="558" />
            </Array>
          </mxGeometry>
        </mxCell>
        <mxCell id="vwYCaHOfWbuZlIVckbCC-77" value="" style="endArrow=none;html=1;rounded=0;exitX=0.365;exitY=0.024;exitDx=0;exitDy=0;exitPerimeter=0;entryX=0.5;entryY=1;entryDx=0;entryDy=0;" parent="1" source="vwYCaHOfWbuZlIVckbCC-36" target="vwYCaHOfWbuZlIVckbCC-52" edge="1">
          <mxGeometry width="50" height="50" relative="1" as="geometry">
            <mxPoint x="-408.5" y="328" as="sourcePoint" />
            <mxPoint x="-358.5" y="278" as="targetPoint" />
            <Array as="points">
              <mxPoint x="-442.5" y="188" />
              <mxPoint x="-498.5" y="188" />
            </Array>
          </mxGeometry>
        </mxCell>
        <mxCell id="4yEKGmQm7jMLqb5Qw2JC-1" value="tb_clientes" style="rounded=0;whiteSpace=wrap;html=1;" parent="1" vertex="1">
          <mxGeometry x="-487" y="-644" width="120" height="60" as="geometry" />
        </mxCell>
        <mxCell id="4yEKGmQm7jMLqb5Qw2JC-2" value="id_cliente" style="ellipse;whiteSpace=wrap;html=1;align=center;direction=east;fontStyle=4" parent="1" vertex="1">
          <mxGeometry x="-684.2599999999998" y="-639" width="110" height="50" as="geometry" />
        </mxCell>
        <mxCell id="4yEKGmQm7jMLqb5Qw2JC-3" value="" style="endArrow=none;html=1;rounded=0;exitX=1;exitY=0.5;exitDx=0;exitDy=0;entryX=0;entryY=0.5;entryDx=0;entryDy=0;" parent="1" source="4yEKGmQm7jMLqb5Qw2JC-2" target="4yEKGmQm7jMLqb5Qw2JC-1" edge="1">
          <mxGeometry width="50" height="50" relative="1" as="geometry">
            <mxPoint x="-484.25999999999976" y="-594" as="sourcePoint" />
            <mxPoint x="-434.25999999999976" y="-644" as="targetPoint" />
          </mxGeometry>
        </mxCell>
        <mxCell id="4yEKGmQm7jMLqb5Qw2JC-5" value="nombre_cliente" style="ellipse;whiteSpace=wrap;html=1;align=center;direction=east;" parent="1" vertex="1">
          <mxGeometry x="-703.0099999999998" y="-474" width="110" height="50" as="geometry" />
        </mxCell>
        <mxCell id="4yEKGmQm7jMLqb5Qw2JC-7" value="apellido_cliente" style="ellipse;whiteSpace=wrap;html=1;align=center;direction=east;" parent="1" vertex="1">
          <mxGeometry x="-559.0099999999998" y="-394" width="110" height="50" as="geometry" />
        </mxCell>
        <mxCell id="4yEKGmQm7jMLqb5Qw2JC-9" value="nombre_empresa" style="ellipse;whiteSpace=wrap;html=1;align=center;direction=east;" parent="1" vertex="1">
          <mxGeometry x="-703.01" y="-750" width="110" height="50" as="geometry" />
        </mxCell>
        <mxCell id="4yEKGmQm7jMLqb5Qw2JC-11" value="correo_electronico_&lt;br&gt;cliente" style="ellipse;whiteSpace=wrap;html=1;align=center;direction=east;" parent="1" vertex="1">
          <mxGeometry x="-398.00999999999976" y="-394" width="110" height="50" as="geometry" />
        </mxCell>
        <mxCell id="4yEKGmQm7jMLqb5Qw2JC-12" value="numero_telefono_&lt;div&gt;cliente&lt;/div&gt;" style="ellipse;whiteSpace=wrap;html=1;align=center;direction=east;" parent="1" vertex="1">
          <mxGeometry x="-261.76" y="-639" width="110" height="50" as="geometry" />
        </mxCell>
        <mxCell id="4yEKGmQm7jMLqb5Qw2JC-14" value="fax_cliente" style="ellipse;whiteSpace=wrap;html=1;align=center;direction=east;" parent="1" vertex="1">
          <mxGeometry x="-274.26" y="-750" width="110" height="50" as="geometry" />
        </mxCell>
        <mxCell id="4yEKGmQm7jMLqb5Qw2JC-17" value="direccion_cliente" style="ellipse;whiteSpace=wrap;html=1;align=center;direction=east;" parent="1" vertex="1">
          <mxGeometry x="-264.26" y="-464" width="110" height="50" as="geometry" />
        </mxCell>
        <mxCell id="4yEKGmQm7jMLqb5Qw2JC-19" value="" style="endArrow=none;html=1;rounded=0;exitX=1;exitY=0.5;exitDx=0;exitDy=0;entryX=0;entryY=1;entryDx=0;entryDy=0;" parent="1" source="4yEKGmQm7jMLqb5Qw2JC-5" target="4yEKGmQm7jMLqb5Qw2JC-1" edge="1">
          <mxGeometry width="50" height="50" relative="1" as="geometry">
            <mxPoint x="-544.2599999999998" y="-464" as="sourcePoint" />
            <mxPoint x="-494.25999999999976" y="-514" as="targetPoint" />
            <Array as="points">
              <mxPoint x="-563.0099999999998" y="-449" />
              <mxPoint x="-563.0099999999998" y="-584" />
            </Array>
          </mxGeometry>
        </mxCell>
        <mxCell id="4yEKGmQm7jMLqb5Qw2JC-21" value="" style="endArrow=none;html=1;rounded=0;entryX=0.1;entryY=1.027;entryDx=0;entryDy=0;exitX=0.5;exitY=0;exitDx=0;exitDy=0;entryPerimeter=0;" parent="1" source="4yEKGmQm7jMLqb5Qw2JC-7" target="4yEKGmQm7jMLqb5Qw2JC-1" edge="1">
          <mxGeometry width="50" height="50" relative="1" as="geometry">
            <mxPoint x="-494.25999999999976" y="-454" as="sourcePoint" />
            <mxPoint x="-444.25999999999976" y="-504" as="targetPoint" />
            <Array as="points">
              <mxPoint x="-504" y="-550" />
              <mxPoint x="-475" y="-550" />
            </Array>
          </mxGeometry>
        </mxCell>
        <mxCell id="4yEKGmQm7jMLqb5Qw2JC-22" value="" style="endArrow=none;html=1;rounded=0;entryX=0.887;entryY=1.027;entryDx=0;entryDy=0;exitX=0.5;exitY=0;exitDx=0;exitDy=0;entryPerimeter=0;" parent="1" source="4yEKGmQm7jMLqb5Qw2JC-11" target="4yEKGmQm7jMLqb5Qw2JC-1" edge="1">
          <mxGeometry width="50" height="50" relative="1" as="geometry">
            <mxPoint x="-374.26" y="-424" as="sourcePoint" />
            <mxPoint x="-324.26" y="-474" as="targetPoint" />
            <Array as="points">
              <mxPoint x="-343.38" y="-553" />
              <mxPoint x="-381" y="-553" />
            </Array>
          </mxGeometry>
        </mxCell>
        <mxCell id="4yEKGmQm7jMLqb5Qw2JC-24" value="" style="endArrow=none;html=1;rounded=0;exitX=0;exitY=0.5;exitDx=0;exitDy=0;entryX=1;entryY=1;entryDx=0;entryDy=0;" parent="1" source="4yEKGmQm7jMLqb5Qw2JC-17" target="4yEKGmQm7jMLqb5Qw2JC-1" edge="1">
          <mxGeometry width="50" height="50" relative="1" as="geometry">
            <mxPoint x="-204.26" y="-484" as="sourcePoint" />
            <mxPoint x="-334.26" y="-614" as="targetPoint" />
            <Array as="points">
              <mxPoint x="-284.26" y="-439" />
              <mxPoint x="-284.26" y="-584" />
            </Array>
          </mxGeometry>
        </mxCell>
        <mxCell id="4yEKGmQm7jMLqb5Qw2JC-26" value="" style="endArrow=none;html=1;rounded=0;exitX=1;exitY=0.5;exitDx=0;exitDy=0;entryX=0;entryY=0.5;entryDx=0;entryDy=0;" parent="1" source="4yEKGmQm7jMLqb5Qw2JC-1" target="4yEKGmQm7jMLqb5Qw2JC-12" edge="1">
          <mxGeometry width="50" height="50" relative="1" as="geometry">
            <mxPoint x="-324.26" y="-594" as="sourcePoint" />
            <mxPoint x="-274.26" y="-644" as="targetPoint" />
          </mxGeometry>
        </mxCell>
        <mxCell id="4yEKGmQm7jMLqb5Qw2JC-30" value="" style="endArrow=none;html=1;rounded=0;exitX=1;exitY=0;exitDx=0;exitDy=0;entryX=0;entryY=0.5;entryDx=0;entryDy=0;" parent="1" source="4yEKGmQm7jMLqb5Qw2JC-1" target="4yEKGmQm7jMLqb5Qw2JC-14" edge="1">
          <mxGeometry width="50" height="50" relative="1" as="geometry">
            <mxPoint x="-314.26" y="-624" as="sourcePoint" />
            <mxPoint x="-264.26" y="-674" as="targetPoint" />
            <Array as="points">
              <mxPoint x="-304.26" y="-644" />
              <mxPoint x="-304.26" y="-725" />
            </Array>
          </mxGeometry>
        </mxCell>
        <mxCell id="4yEKGmQm7jMLqb5Qw2JC-42" value="medio_envio" style="ellipse;whiteSpace=wrap;html=1;align=center;direction=east;" parent="1" vertex="1">
          <mxGeometry x="-2161.75" y="-572" width="110" height="50" as="geometry" />
        </mxCell>
        <mxCell id="4yEKGmQm7jMLqb5Qw2JC-43" value="tb_facturas" style="rounded=0;whiteSpace=wrap;html=1;direction=east;" parent="1" vertex="1">
          <mxGeometry x="-2425.5" y="-632" width="120" height="60" as="geometry" />
        </mxCell>
        <mxCell id="4yEKGmQm7jMLqb5Qw2JC-48" value="estado" style="ellipse;whiteSpace=wrap;html=1;align=center;direction=east;" parent="1" vertex="1">
          <mxGeometry x="-2609.25" y="-444" width="110" height="50" as="geometry" />
        </mxCell>
        <mxCell id="4yEKGmQm7jMLqb5Qw2JC-49" value="costo_envio" style="ellipse;whiteSpace=wrap;html=1;align=center;direction=east;" parent="1" vertex="1">
          <mxGeometry x="-2169.25" y="-782" width="110" height="50" as="geometry" />
        </mxCell>
        <mxCell id="4yEKGmQm7jMLqb5Qw2JC-54" value="impuesto_envio" style="ellipse;whiteSpace=wrap;html=1;align=center;direction=east;" parent="1" vertex="1">
          <mxGeometry x="-2669.25" y="-627" width="110" height="50" as="geometry" />
        </mxCell>
        <mxCell id="4yEKGmQm7jMLqb5Qw2JC-55" value="mensaje_garantia" style="ellipse;whiteSpace=wrap;html=1;align=center;direction=east;" parent="1" vertex="1">
          <mxGeometry x="-2679.25" y="-782" width="110" height="50" as="geometry" />
        </mxCell>
        <mxCell id="4yEKGmQm7jMLqb5Qw2JC-59" value="rango_impuesto" style="ellipse;whiteSpace=wrap;html=1;align=center;direction=east;" parent="1" vertex="1">
          <mxGeometry x="-2669.25" y="-572" width="110" height="50" as="geometry" />
        </mxCell>
        <mxCell id="4yEKGmQm7jMLqb5Qw2JC-62" value="" style="endArrow=none;html=1;rounded=0;exitX=1;exitY=0.5;exitDx=0;exitDy=0;entryX=0;entryY=0.5;entryDx=0;entryDy=0;" parent="1" source="4yEKGmQm7jMLqb5Qw2JC-54" target="4yEKGmQm7jMLqb5Qw2JC-43" edge="1">
          <mxGeometry width="50" height="50" relative="1" as="geometry">
            <mxPoint x="-2519.25" y="-622" as="sourcePoint" />
            <mxPoint x="-2469.25" y="-672" as="targetPoint" />
          </mxGeometry>
        </mxCell>
        <mxCell id="4yEKGmQm7jMLqb5Qw2JC-70" value="" style="endArrow=none;html=1;rounded=0;exitX=1;exitY=0;exitDx=0;exitDy=0;entryX=0;entryY=0.5;entryDx=0;entryDy=0;" parent="1" source="4yEKGmQm7jMLqb5Qw2JC-43" target="4yEKGmQm7jMLqb5Qw2JC-49" edge="1">
          <mxGeometry width="50" height="50" relative="1" as="geometry">
            <mxPoint x="-2179.25" y="-632" as="sourcePoint" />
            <mxPoint x="-2189.25" y="-752" as="targetPoint" />
            <Array as="points">
              <mxPoint x="-2199.25" y="-632" />
              <mxPoint x="-2199.25" y="-757" />
            </Array>
          </mxGeometry>
        </mxCell>
        <mxCell id="4yEKGmQm7jMLqb5Qw2JC-75" value="" style="endArrow=none;html=1;rounded=0;exitX=0.5;exitY=0;exitDx=0;exitDy=0;entryX=0;entryY=1;entryDx=0;entryDy=0;" parent="1" source="4yEKGmQm7jMLqb5Qw2JC-48" target="4yEKGmQm7jMLqb5Qw2JC-43" edge="1">
          <mxGeometry width="50" height="50" relative="1" as="geometry">
            <mxPoint x="-2429.25" y="-432" as="sourcePoint" />
            <mxPoint x="-2379.25" y="-482" as="targetPoint" />
            <Array as="points">
              <mxPoint x="-2484.25" y="-442" />
              <mxPoint x="-2425.5" y="-442" />
            </Array>
          </mxGeometry>
        </mxCell>
        <mxCell id="4yEKGmQm7jMLqb5Qw2JC-80" value="" style="endArrow=none;html=1;rounded=0;entryX=0;entryY=0.5;entryDx=0;entryDy=0;exitX=1.006;exitY=0.639;exitDx=0;exitDy=0;exitPerimeter=0;" parent="1" source="4yEKGmQm7jMLqb5Qw2JC-43" target="4yEKGmQm7jMLqb5Qw2JC-42" edge="1">
          <mxGeometry width="50" height="50" relative="1" as="geometry">
            <mxPoint x="-2265.5" y="-582" as="sourcePoint" />
            <mxPoint x="-2131.75" y="-572" as="targetPoint" />
            <Array as="points">
              <mxPoint x="-2205.25" y="-592" />
              <mxPoint x="-2202.25" y="-547" />
            </Array>
          </mxGeometry>
        </mxCell>
        <mxCell id="4yEKGmQm7jMLqb5Qw2JC-84" value="" style="endArrow=none;html=1;rounded=0;entryX=0;entryY=0;entryDx=0;entryDy=0;exitX=1;exitY=0.5;exitDx=0;exitDy=0;" parent="1" source="4yEKGmQm7jMLqb5Qw2JC-55" target="4yEKGmQm7jMLqb5Qw2JC-43" edge="1">
          <mxGeometry width="50" height="50" relative="1" as="geometry">
            <mxPoint x="-2549.25" y="-594" as="sourcePoint" />
            <mxPoint x="-2499.25" y="-644" as="targetPoint" />
            <Array as="points">
              <mxPoint x="-2539.25" y="-757" />
              <mxPoint x="-2539.25" y="-634" />
            </Array>
          </mxGeometry>
        </mxCell>
        <mxCell id="4yEKGmQm7jMLqb5Qw2JC-85" value="" style="endArrow=none;html=1;rounded=0;exitX=1;exitY=0.5;exitDx=0;exitDy=0;entryX=0;entryY=0.64;entryDx=0;entryDy=0;entryPerimeter=0;" parent="1" source="4yEKGmQm7jMLqb5Qw2JC-59" target="4yEKGmQm7jMLqb5Qw2JC-43" edge="1">
          <mxGeometry width="50" height="50" relative="1" as="geometry">
            <mxPoint x="-2459.25" y="-534" as="sourcePoint" />
            <mxPoint x="-2459.25" y="-564" as="targetPoint" />
            <Array as="points">
              <mxPoint x="-2519.25" y="-547" />
              <mxPoint x="-2519.25" y="-594" />
            </Array>
          </mxGeometry>
        </mxCell>
        <mxCell id="4yEKGmQm7jMLqb5Qw2JC-87" value="id_cliente" style="ellipse;whiteSpace=wrap;html=1;align=center;fontStyle=4" parent="1" vertex="1">
          <mxGeometry x="-485.5" y="78" width="119" height="60" as="geometry" />
        </mxCell>
        <mxCell id="4yEKGmQm7jMLqb5Qw2JC-88" value="id_facturas" style="ellipse;whiteSpace=wrap;html=1;align=center;fontStyle=4" parent="1" vertex="1">
          <mxGeometry x="-2261.75" y="-444" width="110" height="50" as="geometry" />
        </mxCell>
        <mxCell id="4yEKGmQm7jMLqb5Qw2JC-89" value="" style="endArrow=none;html=1;rounded=0;entryX=1;entryY=1;entryDx=0;entryDy=0;exitX=0.435;exitY=0.042;exitDx=0;exitDy=0;exitPerimeter=0;" parent="1" source="4yEKGmQm7jMLqb5Qw2JC-88" target="4yEKGmQm7jMLqb5Qw2JC-43" edge="1">
          <mxGeometry width="50" height="50" relative="1" as="geometry">
            <mxPoint x="-2329.25" y="-414" as="sourcePoint" />
            <mxPoint x="-2319.25" y="-514" as="targetPoint" />
            <Array as="points">
              <mxPoint x="-2305.5" y="-442" />
            </Array>
          </mxGeometry>
        </mxCell>
        <mxCell id="4yEKGmQm7jMLqb5Qw2JC-92" value="tbdetalle_factura" style="rounded=0;whiteSpace=wrap;html=1;" parent="1" vertex="1">
          <mxGeometry x="-2425.5" y="-1224" width="120" height="60" as="geometry" />
        </mxCell>
        <mxCell id="4yEKGmQm7jMLqb5Qw2JC-93" value="id_detalle_factura" style="ellipse;whiteSpace=wrap;html=1;align=center;" parent="1" vertex="1">
          <mxGeometry x="-2423" y="-1292" width="115" height="50" as="geometry" />
        </mxCell>
        <mxCell id="4yEKGmQm7jMLqb5Qw2JC-94" value="" style="endArrow=none;html=1;rounded=0;exitX=0.5;exitY=0;exitDx=0;exitDy=0;entryX=0.5;entryY=1;entryDx=0;entryDy=0;" parent="1" source="4yEKGmQm7jMLqb5Qw2JC-92" target="4yEKGmQm7jMLqb5Qw2JC-93" edge="1">
          <mxGeometry width="50" height="50" relative="1" as="geometry">
            <mxPoint x="-2334.25" y="-1246" as="sourcePoint" />
            <mxPoint x="-2365.5" y="-1240" as="targetPoint" />
          </mxGeometry>
        </mxCell>
        <mxCell id="4yEKGmQm7jMLqb5Qw2JC-95" value="id_cotizacion" style="ellipse;whiteSpace=wrap;html=1;align=center;" parent="1" vertex="1">
          <mxGeometry x="-2284.75" y="-1219" width="115" height="50" as="geometry" />
        </mxCell>
        <mxCell id="4yEKGmQm7jMLqb5Qw2JC-96" value="" style="endArrow=none;html=1;rounded=0;exitX=1;exitY=0.5;exitDx=0;exitDy=0;entryX=0;entryY=0.5;entryDx=0;entryDy=0;" parent="1" source="4yEKGmQm7jMLqb5Qw2JC-92" target="4yEKGmQm7jMLqb5Qw2JC-95" edge="1">
          <mxGeometry width="50" height="50" relative="1" as="geometry">
            <mxPoint x="-2264.25" y="-1216" as="sourcePoint" />
            <mxPoint x="-2214.25" y="-1266" as="targetPoint" />
          </mxGeometry>
        </mxCell>
        <mxCell id="4yEKGmQm7jMLqb5Qw2JC-97" value="cantidad" style="ellipse;whiteSpace=wrap;html=1;align=center;" parent="1" vertex="1">
          <mxGeometry x="-2574.01" y="-1219" width="115" height="50" as="geometry" />
        </mxCell>
        <mxCell id="4yEKGmQm7jMLqb5Qw2JC-98" value="" style="endArrow=none;html=1;rounded=0;exitX=1;exitY=0.5;exitDx=0;exitDy=0;entryX=0;entryY=0.5;entryDx=0;entryDy=0;" parent="1" source="4yEKGmQm7jMLqb5Qw2JC-97" target="4yEKGmQm7jMLqb5Qw2JC-92" edge="1">
          <mxGeometry width="50" height="50" relative="1" as="geometry">
            <mxPoint x="-2489.2500000000036" y="-1206" as="sourcePoint" />
            <mxPoint x="-2384.25" y="-1196" as="targetPoint" />
          </mxGeometry>
        </mxCell>
        <mxCell id="4yEKGmQm7jMLqb5Qw2JC-99" value="id_factura" style="ellipse;whiteSpace=wrap;html=1;align=center;" parent="1" vertex="1">
          <mxGeometry x="-2423" y="-1092" width="115" height="50" as="geometry" />
        </mxCell>
        <mxCell id="4yEKGmQm7jMLqb5Qw2JC-100" value="" style="endArrow=none;html=1;rounded=0;exitX=0.5;exitY=0;exitDx=0;exitDy=0;entryX=0.5;entryY=1;entryDx=0;entryDy=0;" parent="1" source="4yEKGmQm7jMLqb5Qw2JC-99" target="4yEKGmQm7jMLqb5Qw2JC-92" edge="1">
          <mxGeometry width="50" height="50" relative="1" as="geometry">
            <mxPoint x="-2264.25" y="-1106" as="sourcePoint" />
            <mxPoint x="-2214.25" y="-1156" as="targetPoint" />
          </mxGeometry>
        </mxCell>
        <mxCell id="4yEKGmQm7jMLqb5Qw2JC-101" value="tbcategorias" style="rounded=0;whiteSpace=wrap;html=1;" parent="1" vertex="1">
          <mxGeometry x="-1290.0000000000002" y="608" width="120" height="60" as="geometry" />
        </mxCell>
        <mxCell id="4yEKGmQm7jMLqb5Qw2JC-102" value="nombre" style="ellipse;whiteSpace=wrap;html=1;align=center;" parent="1" vertex="1">
          <mxGeometry x="-1435.18" y="613" width="115" height="50" as="geometry" />
        </mxCell>
        <mxCell id="4yEKGmQm7jMLqb5Qw2JC-103" value="" style="endArrow=none;html=1;rounded=0;exitX=0;exitY=0.5;exitDx=0;exitDy=0;entryX=1;entryY=0.5;entryDx=0;entryDy=0;" parent="1" source="4yEKGmQm7jMLqb5Qw2JC-101" target="4yEKGmQm7jMLqb5Qw2JC-102" edge="1">
          <mxGeometry width="50" height="50" relative="1" as="geometry">
            <mxPoint x="-1189.5800000000002" y="585" as="sourcePoint" />
            <mxPoint x="-1139.5800000000002" y="535" as="targetPoint" />
          </mxGeometry>
        </mxCell>
        <mxCell id="4yEKGmQm7jMLqb5Qw2JC-104" value="id_categoria" style="ellipse;whiteSpace=wrap;html=1;align=center;fontStyle=4" parent="1" vertex="1">
          <mxGeometry x="-1139.8200000000002" y="613" width="115" height="50" as="geometry" />
        </mxCell>
        <mxCell id="4yEKGmQm7jMLqb5Qw2JC-105" value="" style="endArrow=none;html=1;rounded=0;exitX=1;exitY=0.5;exitDx=0;exitDy=0;entryX=0;entryY=0.5;entryDx=0;entryDy=0;" parent="1" source="4yEKGmQm7jMLqb5Qw2JC-101" target="4yEKGmQm7jMLqb5Qw2JC-104" edge="1">
          <mxGeometry width="50" height="50" relative="1" as="geometry">
            <mxPoint x="-1119.5800000000002" y="615" as="sourcePoint" />
            <mxPoint x="-1144.5800000000233" y="638" as="targetPoint" />
          </mxGeometry>
        </mxCell>
        <mxCell id="4yEKGmQm7jMLqb5Qw2JC-119" value="total" style="ellipse;whiteSpace=wrap;html=1;align=center;" parent="1" vertex="1">
          <mxGeometry x="-2589.25" y="-1092" width="115" height="50" as="geometry" />
        </mxCell>
        <mxCell id="4yEKGmQm7jMLqb5Qw2JC-120" value="" style="endArrow=none;html=1;rounded=0;entryX=0.123;entryY=1.037;entryDx=0;entryDy=0;entryPerimeter=0;exitX=0.5;exitY=0;exitDx=0;exitDy=0;" parent="1" source="4yEKGmQm7jMLqb5Qw2JC-119" target="4yEKGmQm7jMLqb5Qw2JC-92" edge="1">
          <mxGeometry width="50" height="50" relative="1" as="geometry">
            <mxPoint x="-2489.25" y="-1116" as="sourcePoint" />
            <mxPoint x="-2439.25" y="-1166" as="targetPoint" />
            <Array as="points">
              <mxPoint x="-2532.25" y="-1128" />
              <mxPoint x="-2412.25" y="-1128" />
            </Array>
          </mxGeometry>
        </mxCell>
        <mxCell id="4yEKGmQm7jMLqb5Qw2JC-121" value="id_categoria" style="ellipse;whiteSpace=wrap;html=1;align=center;fontStyle=4" parent="1" vertex="1">
          <mxGeometry x="-1287.14" y="998" width="115" height="50" as="geometry" />
        </mxCell>
        <mxCell id="4yEKGmQm7jMLqb5Qw2JC-123" value="" style="endArrow=none;html=1;rounded=0;entryX=0.5;entryY=0;entryDx=0;entryDy=0;exitX=0.5;exitY=1;exitDx=0;exitDy=0;" parent="1" source="4yEKGmQm7jMLqb5Qw2JC-121" target="vwYCaHOfWbuZlIVckbCC-2" edge="1">
          <mxGeometry width="50" height="50" relative="1" as="geometry">
            <mxPoint x="-1265.24" y="970" as="sourcePoint" />
            <mxPoint x="-1215.24" y="1090" as="targetPoint" />
          </mxGeometry>
        </mxCell>
        <mxCell id="4yEKGmQm7jMLqb5Qw2JC-125" value="tiene" style="rhombus;whiteSpace=wrap;html=1;" parent="1" vertex="1">
          <mxGeometry x="-1269.6399999999999" y="755" width="80" height="80" as="geometry" />
        </mxCell>
        <mxCell id="4yEKGmQm7jMLqb5Qw2JC-132" value="" style="endArrow=none;html=1;rounded=0;exitX=0.5;exitY=0;exitDx=0;exitDy=0;entryX=0.5;entryY=1;entryDx=0;entryDy=0;" parent="1" source="4yEKGmQm7jMLqb5Qw2JC-134" target="4yEKGmQm7jMLqb5Qw2JC-99" edge="1">
          <mxGeometry width="50" height="50" relative="1" as="geometry">
            <mxPoint x="-1847.58" y="-770" as="sourcePoint" />
            <mxPoint x="-1797.58" y="-820" as="targetPoint" />
          </mxGeometry>
        </mxCell>
        <mxCell id="4yEKGmQm7jMLqb5Qw2JC-135" value="1" style="text;html=1;align=center;verticalAlign=middle;resizable=0;points=[];autosize=1;strokeColor=none;fillColor=none;" parent="1" vertex="1">
          <mxGeometry x="-2400.5" y="-744" width="30" height="30" as="geometry" />
        </mxCell>
        <mxCell id="4yEKGmQm7jMLqb5Qw2JC-136" value="1" style="text;html=1;align=center;verticalAlign=middle;resizable=0;points=[];autosize=1;strokeColor=none;fillColor=none;" parent="1" vertex="1">
          <mxGeometry x="-2370.5" y="-744" width="30" height="30" as="geometry" />
        </mxCell>
        <mxCell id="4yEKGmQm7jMLqb5Qw2JC-137" value="1" style="text;html=1;align=center;verticalAlign=middle;resizable=0;points=[];autosize=1;strokeColor=none;fillColor=none;" parent="1" vertex="1">
          <mxGeometry x="-2400.5" y="-1022" width="30" height="30" as="geometry" />
        </mxCell>
        <mxCell id="4yEKGmQm7jMLqb5Qw2JC-138" value="N" style="text;html=1;align=center;verticalAlign=middle;resizable=0;points=[];autosize=1;strokeColor=none;fillColor=none;" parent="1" vertex="1">
          <mxGeometry x="-2355.5" y="-1022" width="30" height="30" as="geometry" />
        </mxCell>
        <mxCell id="4yEKGmQm7jMLqb5Qw2JC-139" value="" style="endArrow=none;html=1;rounded=0;entryX=0.5;entryY=1;entryDx=0;entryDy=0;exitX=0.5;exitY=0;exitDx=0;exitDy=0;" parent="1" source="4yEKGmQm7jMLqb5Qw2JC-58" target="4yEKGmQm7jMLqb5Qw2JC-134" edge="1">
          <mxGeometry width="50" height="50" relative="1" as="geometry">
            <mxPoint x="-2485.5" y="-902" as="sourcePoint" />
            <mxPoint x="-2383" y="-842" as="targetPoint" />
          </mxGeometry>
        </mxCell>
        <mxCell id="4yEKGmQm7jMLqb5Qw2JC-134" value="tiene" style="rhombus;whiteSpace=wrap;html=1;" parent="1" vertex="1">
          <mxGeometry x="-2405.5" y="-922" width="80" height="80" as="geometry" />
        </mxCell>
        <mxCell id="4yEKGmQm7jMLqb5Qw2JC-146" value="" style="endArrow=none;html=1;rounded=0;exitX=1;exitY=0.5;exitDx=0;exitDy=0;entryX=0;entryY=0.5;entryDx=0;entryDy=0;" parent="1" source="vwYCaHOfWbuZlIVckbCC-36" target="4yEKGmQm7jMLqb5Qw2JC-147" edge="1">
          <mxGeometry width="50" height="50" relative="1" as="geometry">
            <mxPoint x="-150" y="470" as="sourcePoint" />
            <mxPoint x="-170" y="408" as="targetPoint" />
          </mxGeometry>
        </mxCell>
        <mxCell id="4yEKGmQm7jMLqb5Qw2JC-147" value="&lt;span style=&quot;text-decoration-line: underline;&quot;&gt;id_detalle_cotizacion&lt;/span&gt;" style="ellipse;whiteSpace=wrap;html=1;align=center;" parent="1" vertex="1">
          <mxGeometry x="-262.75" y="385" width="125" height="50" as="geometry" />
        </mxCell>
        <mxCell id="4yEKGmQm7jMLqb5Qw2JC-150" value="" style="endArrow=none;html=1;rounded=0;entryX=0.5;entryY=0;entryDx=0;entryDy=0;exitX=0.5;exitY=1;exitDx=0;exitDy=0;" parent="1" source="4yEKGmQm7jMLqb5Qw2JC-164" target="4yEKGmQm7jMLqb5Qw2JC-149" edge="1">
          <mxGeometry width="50" height="50" relative="1" as="geometry">
            <mxPoint x="-460" y="690" as="sourcePoint" />
            <mxPoint x="196" y="405" as="targetPoint" />
          </mxGeometry>
        </mxCell>
        <mxCell id="4yEKGmQm7jMLqb5Qw2JC-149" value="contiene" style="rhombus;whiteSpace=wrap;html=1;" parent="1" vertex="1">
          <mxGeometry x="-467" y="820" width="80" height="80" as="geometry" />
        </mxCell>
        <mxCell id="4yEKGmQm7jMLqb5Qw2JC-156" value="fecha_registro_&lt;div&gt;cliente&lt;br&gt;&lt;/div&gt;" style="ellipse;whiteSpace=wrap;html=1;align=center;direction=east;" parent="1" vertex="1">
          <mxGeometry x="-605.9999999999998" y="-820" width="110" height="50" as="geometry" />
        </mxCell>
        <mxCell id="4yEKGmQm7jMLqb5Qw2JC-157" value="" style="endArrow=none;html=1;rounded=0;exitX=0.5;exitY=1;exitDx=0;exitDy=0;entryX=0.25;entryY=0;entryDx=0;entryDy=0;" parent="1" source="4yEKGmQm7jMLqb5Qw2JC-156" target="4yEKGmQm7jMLqb5Qw2JC-1" edge="1">
          <mxGeometry width="50" height="50" relative="1" as="geometry">
            <mxPoint x="-11.379999999999997" y="-453" as="sourcePoint" />
            <mxPoint x="38.620000000000005" y="-503" as="targetPoint" />
            <Array as="points">
              <mxPoint x="-551" y="-750" />
              <mxPoint x="-457" y="-750" />
            </Array>
          </mxGeometry>
        </mxCell>
        <mxCell id="4yEKGmQm7jMLqb5Qw2JC-163" value="" style="endArrow=none;html=1;rounded=0;exitX=0.5;exitY=0;exitDx=0;exitDy=0;entryX=0.5;entryY=1;entryDx=0;entryDy=0;" parent="1" source="vwYCaHOfWbuZlIVckbCC-36" target="4yEKGmQm7jMLqb5Qw2JC-87" edge="1">
          <mxGeometry width="50" height="50" relative="1" as="geometry">
            <mxPoint x="-400" y="290" as="sourcePoint" />
            <mxPoint x="-350" y="240" as="targetPoint" />
          </mxGeometry>
        </mxCell>
        <mxCell id="4yEKGmQm7jMLqb5Qw2JC-164" value="id_producto_cotizado" style="ellipse;whiteSpace=wrap;html=1;align=center;direction=east;" parent="1" vertex="1">
          <mxGeometry x="-486.88" y="574" width="119" height="58" as="geometry" />
        </mxCell>
        <mxCell id="4yEKGmQm7jMLqb5Qw2JC-165" value="" style="endArrow=none;html=1;rounded=0;entryX=0.5;entryY=1;entryDx=0;entryDy=0;exitX=0.5;exitY=0;exitDx=0;exitDy=0;" parent="1" source="4yEKGmQm7jMLqb5Qw2JC-164" target="vwYCaHOfWbuZlIVckbCC-36" edge="1">
          <mxGeometry width="50" height="50" relative="1" as="geometry">
            <mxPoint x="-420" y="600" as="sourcePoint" />
            <mxPoint x="-370" y="550" as="targetPoint" />
          </mxGeometry>
        </mxCell>
        <mxCell id="4yEKGmQm7jMLqb5Qw2JC-168" value="tb_usuario" style="rounded=0;whiteSpace=wrap;html=1;" parent="1" vertex="1">
          <mxGeometry x="-1670" y="381" width="120" height="60" as="geometry" />
        </mxCell>
        <mxCell id="4yEKGmQm7jMLqb5Qw2JC-169" value="&lt;u&gt;id_usuario&lt;/u&gt;" style="ellipse;whiteSpace=wrap;html=1;align=center;direction=east;" parent="1" vertex="1">
          <mxGeometry x="-1900" y="340" width="110" height="50" as="geometry" />
        </mxCell>
        <mxCell id="4yEKGmQm7jMLqb5Qw2JC-170" value="nombre" style="ellipse;whiteSpace=wrap;html=1;align=center;direction=east;" parent="1" vertex="1">
          <mxGeometry x="-1850" y="268" width="110" height="50" as="geometry" />
        </mxCell>
        <mxCell id="4yEKGmQm7jMLqb5Qw2JC-171" value="" style="endArrow=none;html=1;rounded=0;exitX=1;exitY=0.5;exitDx=0;exitDy=0;entryX=0;entryY=0.15;entryDx=0;entryDy=0;entryPerimeter=0;" parent="1" source="4yEKGmQm7jMLqb5Qw2JC-169" target="4yEKGmQm7jMLqb5Qw2JC-168" edge="1">
          <mxGeometry width="50" height="50" relative="1" as="geometry">
            <mxPoint x="-1710" y="419" as="sourcePoint" />
            <mxPoint x="-1660" y="369" as="targetPoint" />
            <Array as="points">
              <mxPoint x="-1720" y="365" />
              <mxPoint x="-1720" y="390" />
            </Array>
          </mxGeometry>
        </mxCell>
        <mxCell id="4yEKGmQm7jMLqb5Qw2JC-173" value="correo_electronico" style="ellipse;whiteSpace=wrap;html=1;align=center;direction=east;" parent="1" vertex="1">
          <mxGeometry x="-1920" y="498" width="110" height="50" as="geometry" />
        </mxCell>
        <mxCell id="4yEKGmQm7jMLqb5Qw2JC-174" value="contraseÃ±a" style="ellipse;whiteSpace=wrap;html=1;align=center;direction=east;" parent="1" vertex="1">
          <mxGeometry x="-1800" y="498" width="110" height="50" as="geometry" />
        </mxCell>
        <mxCell id="4yEKGmQm7jMLqb5Qw2JC-175" value="&lt;span style=&quot;text-decoration-line: underline;&quot;&gt;id_notificacion&lt;/span&gt;" style="ellipse;whiteSpace=wrap;html=1;align=center;direction=east;" parent="1" vertex="1">
          <mxGeometry x="-1665" y="268" width="110" height="50" as="geometry" />
        </mxCell>
        <mxCell id="4yEKGmQm7jMLqb5Qw2JC-176" value="" style="endArrow=none;html=1;rounded=0;exitX=0.5;exitY=1;exitDx=0;exitDy=0;entryX=0.25;entryY=0;entryDx=0;entryDy=0;" parent="1" source="4yEKGmQm7jMLqb5Qw2JC-170" target="4yEKGmQm7jMLqb5Qw2JC-168" edge="1">
          <mxGeometry width="50" height="50" relative="1" as="geometry">
            <mxPoint x="-1700" y="379" as="sourcePoint" />
            <mxPoint x="-1650" y="329" as="targetPoint" />
            <Array as="points">
              <mxPoint x="-1795" y="339" />
              <mxPoint x="-1640" y="339" />
            </Array>
          </mxGeometry>
        </mxCell>
        <mxCell id="4yEKGmQm7jMLqb5Qw2JC-177" value="" style="endArrow=none;html=1;rounded=0;exitX=0.5;exitY=0;exitDx=0;exitDy=0;entryX=0.25;entryY=1;entryDx=0;entryDy=0;" parent="1" source="4yEKGmQm7jMLqb5Qw2JC-173" target="4yEKGmQm7jMLqb5Qw2JC-168" edge="1">
          <mxGeometry width="50" height="50" relative="1" as="geometry">
            <mxPoint x="-1730" y="499" as="sourcePoint" />
            <mxPoint x="-1680" y="449" as="targetPoint" />
            <Array as="points">
              <mxPoint x="-1865" y="470" />
              <mxPoint x="-1640" y="470" />
            </Array>
          </mxGeometry>
        </mxCell>
        <mxCell id="4yEKGmQm7jMLqb5Qw2JC-178" value="" style="endArrow=none;html=1;rounded=0;entryX=0.5;entryY=1;entryDx=0;entryDy=0;exitX=0.5;exitY=0;exitDx=0;exitDy=0;" parent="1" source="4yEKGmQm7jMLqb5Qw2JC-168" target="4yEKGmQm7jMLqb5Qw2JC-175" edge="1">
          <mxGeometry width="50" height="50" relative="1" as="geometry">
            <mxPoint x="-1620" y="399" as="sourcePoint" />
            <mxPoint x="-1570" y="349" as="targetPoint" />
          </mxGeometry>
        </mxCell>
        <mxCell id="4yEKGmQm7jMLqb5Qw2JC-179" value="" style="endArrow=none;html=1;rounded=0;exitX=0.5;exitY=0;exitDx=0;exitDy=0;entryX=0.347;entryY=0.999;entryDx=0;entryDy=0;entryPerimeter=0;" parent="1" source="4yEKGmQm7jMLqb5Qw2JC-174" target="4yEKGmQm7jMLqb5Qw2JC-168" edge="1">
          <mxGeometry width="50" height="50" relative="1" as="geometry">
            <mxPoint x="-1580" y="499" as="sourcePoint" />
            <mxPoint x="-1530" y="449" as="targetPoint" />
            <Array as="points">
              <mxPoint x="-1745" y="480" />
              <mxPoint x="-1628" y="480" />
            </Array>
          </mxGeometry>
        </mxCell>
        <mxCell id="4yEKGmQm7jMLqb5Qw2JC-183" value="id_cotizacion" style="ellipse;whiteSpace=wrap;html=1;align=center;direction=east;" parent="1" vertex="1">
          <mxGeometry x="-726" y="386" width="110" height="50" as="geometry" />
        </mxCell>
        <mxCell id="4yEKGmQm7jMLqb5Qw2JC-184" value="" style="endArrow=none;html=1;rounded=0;exitX=1;exitY=0.5;exitDx=0;exitDy=0;entryX=0;entryY=0.5;entryDx=0;entryDy=0;" parent="1" source="4yEKGmQm7jMLqb5Qw2JC-183" target="vwYCaHOfWbuZlIVckbCC-36" edge="1">
          <mxGeometry width="50" height="50" relative="1" as="geometry">
            <mxPoint x="-550" y="460" as="sourcePoint" />
            <mxPoint x="-500" y="410" as="targetPoint" />
          </mxGeometry>
        </mxCell>
        <mxCell id="4yEKGmQm7jMLqb5Qw2JC-185" value="" style="endArrow=none;html=1;rounded=0;exitX=1;exitY=0.5;exitDx=0;exitDy=0;entryX=0;entryY=0.5;entryDx=0;entryDy=0;" parent="1" source="YsWxQZR77V_EV7mCkCUQ-11" target="4yEKGmQm7jMLqb5Qw2JC-183" edge="1">
          <mxGeometry width="50" height="50" relative="1" as="geometry">
            <mxPoint x="-910" y="420" as="sourcePoint" />
            <mxPoint x="-860" y="370" as="targetPoint" />
          </mxGeometry>
        </mxCell>
        <mxCell id="4yEKGmQm7jMLqb5Qw2JC-187" value="1" style="text;html=1;align=center;verticalAlign=middle;resizable=0;points=[];autosize=1;strokeColor=none;fillColor=none;" parent="1" vertex="1">
          <mxGeometry x="-1550" y="381" width="30" height="30" as="geometry" />
        </mxCell>
        <mxCell id="4yEKGmQm7jMLqb5Qw2JC-189" value="&amp;nbsp;N" style="text;html=1;align=center;verticalAlign=middle;resizable=0;points=[];autosize=1;strokeColor=none;fillColor=none;" parent="1" vertex="1">
          <mxGeometry x="-1555" y="408" width="40" height="30" as="geometry" />
        </mxCell>
        <mxCell id="_ntqJAn3jPpiwG4FcgFy-25" value="&lt;span style=&quot;text-wrap: nowrap;&quot;&gt;&lt;font style=&quot;font-size: 13px;&quot;&gt;tb_almacenamiento&lt;/font&gt;&lt;/span&gt;" style="rounded=0;whiteSpace=wrap;html=1;" parent="1" vertex="1">
          <mxGeometry x="-755" y="742" width="160" height="60" as="geometry" />
        </mxCell>
        <mxCell id="_ntqJAn3jPpiwG4FcgFy-27" value="nombre" style="ellipse;whiteSpace=wrap;html=1;align=center;direction=east;" parent="1" vertex="1">
          <mxGeometry x="-805" y="632" width="110" height="50" as="geometry" />
        </mxCell>
        <mxCell id="_ntqJAn3jPpiwG4FcgFy-29" value="&lt;span style=&quot;text-align: left; text-wrap: nowrap;&quot;&gt;&lt;u&gt;id_almacenamiento&lt;/u&gt;&lt;/span&gt;" style="ellipse;whiteSpace=wrap;html=1;align=center;direction=east;" parent="1" vertex="1">
          <mxGeometry x="-857.5" y="835" width="110" height="50" as="geometry" />
        </mxCell>
        <mxCell id="_ntqJAn3jPpiwG4FcgFy-32" value="" style="endArrow=none;html=1;rounded=0;exitX=0.5;exitY=1;exitDx=0;exitDy=0;" parent="1" source="_ntqJAn3jPpiwG4FcgFy-27" target="_ntqJAn3jPpiwG4FcgFy-25" edge="1">
          <mxGeometry width="50" height="50" relative="1" as="geometry">
            <mxPoint x="-686" y="743" as="sourcePoint" />
            <mxPoint x="-636" y="693" as="targetPoint" />
            <Array as="points">
              <mxPoint x="-750" y="700" />
              <mxPoint x="-675" y="700" />
            </Array>
          </mxGeometry>
        </mxCell>
        <mxCell id="_ntqJAn3jPpiwG4FcgFy-33" value="" style="endArrow=none;html=1;rounded=0;exitX=0.5;exitY=0;exitDx=0;exitDy=0;entryX=0.158;entryY=1.024;entryDx=0;entryDy=0;entryPerimeter=0;" parent="1" source="_ntqJAn3jPpiwG4FcgFy-29" target="_ntqJAn3jPpiwG4FcgFy-25" edge="1">
          <mxGeometry width="50" height="50" relative="1" as="geometry">
            <mxPoint x="-716" y="863" as="sourcePoint" />
            <mxPoint x="-666" y="813" as="targetPoint" />
            <Array as="points">
              <mxPoint x="-802" y="823" />
              <mxPoint x="-730" y="823" />
            </Array>
          </mxGeometry>
        </mxCell>
        <mxCell id="_ntqJAn3jPpiwG4FcgFy-36" value="puede" style="rhombus;whiteSpace=wrap;html=1;" parent="1" vertex="1">
          <mxGeometry x="-902.5" y="530" width="80" height="80" as="geometry" />
        </mxCell>
        <mxCell id="_ntqJAn3jPpiwG4FcgFy-37" value="1" style="text;html=1;align=center;verticalAlign=middle;resizable=0;points=[];autosize=1;strokeColor=none;fillColor=none;" parent="1" vertex="1">
          <mxGeometry x="-827" y="747" width="30" height="30" as="geometry" />
        </mxCell>
        <mxCell id="_ntqJAn3jPpiwG4FcgFy-38" value="1" style="text;html=1;align=center;verticalAlign=middle;resizable=0;points=[];autosize=1;strokeColor=none;fillColor=none;" parent="1" vertex="1">
          <mxGeometry x="-827" y="770" width="30" height="30" as="geometry" />
        </mxCell>
        <mxCell id="_ntqJAn3jPpiwG4FcgFy-39" value="&lt;u style=&quot;text-align: left; text-wrap: nowrap;&quot;&gt;id_almacenamiento&lt;/u&gt;" style="ellipse;whiteSpace=wrap;html=1;align=center;direction=east;" parent="1" vertex="1">
          <mxGeometry x="-716" y="465" width="110" height="50" as="geometry" />
        </mxCell>
        <mxCell id="_ntqJAn3jPpiwG4FcgFy-40" value="N" style="text;html=1;align=center;verticalAlign=middle;resizable=0;points=[];autosize=1;strokeColor=none;fillColor=none;" parent="1" vertex="1">
          <mxGeometry x="-755" y="378" width="30" height="30" as="geometry" />
        </mxCell>
        <mxCell id="_ntqJAn3jPpiwG4FcgFy-41" value="N" style="text;html=1;align=center;verticalAlign=middle;resizable=0;points=[];autosize=1;strokeColor=none;fillColor=none;" parent="1" vertex="1">
          <mxGeometry x="-755" y="408" width="30" height="30" as="geometry" />
        </mxCell>
        <mxCell id="_ntqJAn3jPpiwG4FcgFy-42" value="1" style="text;html=1;align=center;verticalAlign=middle;resizable=0;points=[];autosize=1;strokeColor=none;fillColor=none;" parent="1" vertex="1">
          <mxGeometry x="-746" y="455" width="30" height="30" as="geometry" />
        </mxCell>
        <mxCell id="_ntqJAn3jPpiwG4FcgFy-43" value="N" style="text;html=1;align=center;verticalAlign=middle;resizable=0;points=[];autosize=1;strokeColor=none;fillColor=none;" parent="1" vertex="1">
          <mxGeometry x="-746" y="485" width="30" height="30" as="geometry" />
        </mxCell>
        <mxCell id="_ntqJAn3jPpiwG4FcgFy-44" value="" style="endArrow=none;html=1;rounded=0;" parent="1" source="_ntqJAn3jPpiwG4FcgFy-36" target="_ntqJAn3jPpiwG4FcgFy-39" edge="1">
          <mxGeometry width="50" height="50" relative="1" as="geometry">
            <mxPoint x="-1004" y="594.7" as="sourcePoint" />
            <mxPoint x="-690" y="594.7" as="targetPoint" />
            <Array as="points">
              <mxPoint x="-860" y="490" />
            </Array>
          </mxGeometry>
        </mxCell>
        <mxCell id="_ntqJAn3jPpiwG4FcgFy-45" value="" style="endArrow=none;html=1;rounded=0;entryX=0.5;entryY=1;entryDx=0;entryDy=0;exitX=0;exitY=0.5;exitDx=0;exitDy=0;" parent="1" source="_ntqJAn3jPpiwG4FcgFy-25" target="_ntqJAn3jPpiwG4FcgFy-36" edge="1">
          <mxGeometry width="50" height="50" relative="1" as="geometry">
            <mxPoint x="-750" y="780" as="sourcePoint" />
            <mxPoint x="-716" y="297" as="targetPoint" />
            <Array as="points">
              <mxPoint x="-862" y="772" />
            </Array>
          </mxGeometry>
        </mxCell>
        <mxCell id="_ntqJAn3jPpiwG4FcgFy-46" value="" style="endArrow=none;html=1;rounded=0;entryX=0;entryY=0.75;entryDx=0;entryDy=0;" parent="1" source="_ntqJAn3jPpiwG4FcgFy-39" target="vwYCaHOfWbuZlIVckbCC-36" edge="1">
          <mxGeometry width="50" height="50" relative="1" as="geometry">
            <mxPoint x="-616" y="491" as="sourcePoint" />
            <mxPoint x="-506" y="491" as="targetPoint" />
            <Array as="points">
              <mxPoint x="-550" y="490" />
              <mxPoint x="-550" y="425" />
            </Array>
          </mxGeometry>
        </mxCell>
        <mxCell id="YsWxQZR77V_EV7mCkCUQ-1" value="" style="endArrow=none;html=1;rounded=0;exitX=1;exitY=0.5;exitDx=0;exitDy=0;entryX=0;entryY=0.5;entryDx=0;entryDy=0;" parent="1" source="4yEKGmQm7jMLqb5Qw2JC-168" target="4yEKGmQm7jMLqb5Qw2JC-186" edge="1">
          <mxGeometry width="50" height="50" relative="1" as="geometry">
            <mxPoint x="-1400" y="408" as="sourcePoint" />
            <mxPoint x="-726" y="410" as="targetPoint" />
          </mxGeometry>
        </mxCell>
        <mxCell id="4yEKGmQm7jMLqb5Qw2JC-186" value="hace" style="rhombus;whiteSpace=wrap;html=1;" parent="1" vertex="1">
          <mxGeometry x="-1430" y="371" width="80" height="80" as="geometry" />
        </mxCell>
        <mxCell id="YsWxQZR77V_EV7mCkCUQ-4" value="" style="endArrow=none;html=1;rounded=0;exitX=1;exitY=0.5;exitDx=0;exitDy=0;entryX=0;entryY=0.5;entryDx=0;entryDy=0;" parent="1" source="4yEKGmQm7jMLqb5Qw2JC-186" target="YsWxQZR77V_EV7mCkCUQ-3" edge="1">
          <mxGeometry width="50" height="50" relative="1" as="geometry">
            <mxPoint x="-1260" y="410" as="sourcePoint" />
            <mxPoint x="-726" y="409" as="targetPoint" />
          </mxGeometry>
        </mxCell>
        <mxCell id="YsWxQZR77V_EV7mCkCUQ-3" value="id_usuario" style="ellipse;whiteSpace=wrap;html=1;align=center;direction=east;" parent="1" vertex="1">
          <mxGeometry x="-1220" y="386" width="110" height="50" as="geometry" />
        </mxCell>
        <mxCell id="YsWxQZR77V_EV7mCkCUQ-5" value="" style="endArrow=none;html=1;rounded=0;exitX=1;exitY=0.5;exitDx=0;exitDy=0;entryX=0;entryY=0.5;entryDx=0;entryDy=0;" parent="1" source="YsWxQZR77V_EV7mCkCUQ-3" target="YsWxQZR77V_EV7mCkCUQ-2" edge="1">
          <mxGeometry width="50" height="50" relative="1" as="geometry">
            <mxPoint x="-1145" y="410" as="sourcePoint" />
            <mxPoint x="-771" y="409" as="targetPoint" />
          </mxGeometry>
        </mxCell>
        <mxCell id="YsWxQZR77V_EV7mCkCUQ-2" value="tb_cotizacion" style="rounded=0;whiteSpace=wrap;html=1;" parent="1" vertex="1">
          <mxGeometry x="-1085" y="381" width="120" height="60" as="geometry" />
        </mxCell>
        <mxCell id="YsWxQZR77V_EV7mCkCUQ-6" value="id_cotizacion" style="ellipse;whiteSpace=wrap;html=1;align=center;direction=east;" parent="1" vertex="1">
          <mxGeometry x="-1080" y="190" width="110" height="50" as="geometry" />
        </mxCell>
        <mxCell id="YsWxQZR77V_EV7mCkCUQ-7" value="" style="endArrow=none;html=1;rounded=0;exitX=0.5;exitY=1;exitDx=0;exitDy=0;entryX=0.5;entryY=0;entryDx=0;entryDy=0;" parent="1" source="YsWxQZR77V_EV7mCkCUQ-6" target="YsWxQZR77V_EV7mCkCUQ-2" edge="1">
          <mxGeometry width="50" height="50" relative="1" as="geometry">
            <mxPoint x="-960" y="280" as="sourcePoint" />
            <mxPoint x="-990" y="360" as="targetPoint" />
          </mxGeometry>
        </mxCell>
        <mxCell id="YsWxQZR77V_EV7mCkCUQ-9" value="nombre_cotizacion" style="ellipse;whiteSpace=wrap;html=1;align=center;direction=east;" parent="1" vertex="1">
          <mxGeometry x="-1195" y="265" width="110" height="50" as="geometry" />
        </mxCell>
        <mxCell id="YsWxQZR77V_EV7mCkCUQ-10" value="" style="endArrow=none;html=1;rounded=0;exitX=0.25;exitY=0;exitDx=0;exitDy=0;entryX=1;entryY=0.5;entryDx=0;entryDy=0;" parent="1" source="YsWxQZR77V_EV7mCkCUQ-2" target="YsWxQZR77V_EV7mCkCUQ-9" edge="1">
          <mxGeometry width="50" height="50" relative="1" as="geometry">
            <mxPoint x="-995" y="310" as="sourcePoint" />
            <mxPoint x="-1070" y="350" as="targetPoint" />
            <Array as="points">
              <mxPoint x="-1055" y="290" />
            </Array>
          </mxGeometry>
        </mxCell>
        <mxCell id="YsWxQZR77V_EV7mCkCUQ-12" value="" style="endArrow=none;html=1;rounded=0;exitX=1;exitY=0.5;exitDx=0;exitDy=0;entryX=0;entryY=0.5;entryDx=0;entryDy=0;" parent="1" source="YsWxQZR77V_EV7mCkCUQ-2" target="YsWxQZR77V_EV7mCkCUQ-11" edge="1">
          <mxGeometry width="50" height="50" relative="1" as="geometry">
            <mxPoint x="-920" y="411" as="sourcePoint" />
            <mxPoint x="-726" y="409" as="targetPoint" />
          </mxGeometry>
        </mxCell>
        <mxCell id="YsWxQZR77V_EV7mCkCUQ-11" value="tiene" style="rhombus;whiteSpace=wrap;html=1;" parent="1" vertex="1">
          <mxGeometry x="-880" y="371" width="80" height="80" as="geometry" />
        </mxCell>
        <mxCell id="YsWxQZR77V_EV7mCkCUQ-14" value="1" style="text;html=1;align=center;verticalAlign=middle;resizable=0;points=[];autosize=1;strokeColor=none;fillColor=none;" parent="1" vertex="1">
          <mxGeometry x="-1250" y="378" width="30" height="30" as="geometry" />
        </mxCell>
        <mxCell id="YsWxQZR77V_EV7mCkCUQ-15" value="1" style="text;html=1;align=center;verticalAlign=middle;resizable=0;points=[];autosize=1;strokeColor=none;fillColor=none;" parent="1" vertex="1">
          <mxGeometry x="-1250" y="408" width="30" height="30" as="geometry" />
        </mxCell>
        <mxCell id="YsWxQZR77V_EV7mCkCUQ-16" value="N" style="text;html=1;align=center;verticalAlign=middle;resizable=0;points=[];autosize=1;strokeColor=none;fillColor=none;" parent="1" vertex="1">
          <mxGeometry x="-960" y="381" width="30" height="30" as="geometry" />
        </mxCell>
        <mxCell id="YsWxQZR77V_EV7mCkCUQ-17" value="N" style="text;html=1;align=center;verticalAlign=middle;resizable=0;points=[];autosize=1;strokeColor=none;fillColor=none;" parent="1" vertex="1">
          <mxGeometry x="-960" y="408" width="30" height="30" as="geometry" />
        </mxCell>
        <mxCell id="YsWxQZR77V_EV7mCkCUQ-18" value="" style="endArrow=none;html=1;rounded=0;exitX=0;exitY=0.5;exitDx=0;exitDy=0;entryX=1;entryY=0.5;entryDx=0;entryDy=0;" parent="1" source="YsWxQZR77V_EV7mCkCUQ-19" target="_ntqJAn3jPpiwG4FcgFy-25" edge="1">
          <mxGeometry width="50" height="50" relative="1" as="geometry">
            <mxPoint x="-762.5" y="777" as="sourcePoint" />
            <mxPoint x="-560" y="700" as="targetPoint" />
          </mxGeometry>
        </mxCell>
        <mxCell id="YsWxQZR77V_EV7mCkCUQ-19" value="tiempo_inicial" style="ellipse;whiteSpace=wrap;html=1;align=center;direction=east;" parent="1" vertex="1">
          <mxGeometry x="-559.01" y="747" width="110" height="50" as="geometry" />
        </mxCell>
        <mxCell id="YsWxQZR77V_EV7mCkCUQ-20" value="" style="endArrow=none;html=1;rounded=0;entryX=0.5;entryY=1;entryDx=0;entryDy=0;exitX=0.5;exitY=1;exitDx=0;exitDy=0;" parent="1" edge="1">
          <mxGeometry width="50" height="50" relative="1" as="geometry">
            <mxPoint x="-561" y="-770" as="sourcePoint" />
            <mxPoint x="-561" y="-770" as="targetPoint" />
          </mxGeometry>
        </mxCell>
        <mxCell id="YsWxQZR77V_EV7mCkCUQ-21" value="" style="endArrow=none;html=1;rounded=0;exitX=0.5;exitY=0;exitDx=0;exitDy=0;entryX=0.5;entryY=1;entryDx=0;entryDy=0;" parent="1" source="4yEKGmQm7jMLqb5Qw2JC-87" target="4yEKGmQm7jMLqb5Qw2JC-1" edge="1">
          <mxGeometry width="50" height="50" relative="1" as="geometry">
            <mxPoint x="-400" y="-10" as="sourcePoint" />
            <mxPoint x="-350" y="-60" as="targetPoint" />
          </mxGeometry>
        </mxCell>
        <mxCell id="YsWxQZR77V_EV7mCkCUQ-23" value="1" style="text;html=1;align=center;verticalAlign=middle;resizable=0;points=[];autosize=1;strokeColor=none;fillColor=none;" parent="1" vertex="1">
          <mxGeometry x="-465" y="-12" width="30" height="30" as="geometry" />
        </mxCell>
        <mxCell id="YsWxQZR77V_EV7mCkCUQ-24" value="N" style="text;html=1;align=center;verticalAlign=middle;resizable=0;points=[];autosize=1;strokeColor=none;fillColor=none;" parent="1" vertex="1">
          <mxGeometry x="-413" y="-12" width="30" height="30" as="geometry" />
        </mxCell>
        <mxCell id="YsWxQZR77V_EV7mCkCUQ-25" value="tiene" style="rhombus;whiteSpace=wrap;html=1;" parent="1" vertex="1">
          <mxGeometry x="-467" y="-220" width="80" height="80" as="geometry" />
        </mxCell>
        <mxCell id="YsWxQZR77V_EV7mCkCUQ-27" value="1" style="text;html=1;align=center;verticalAlign=middle;resizable=0;points=[];autosize=1;strokeColor=none;fillColor=none;" parent="1" vertex="1">
          <mxGeometry x="-465" y="-582" width="30" height="30" as="geometry" />
        </mxCell>
        <mxCell id="YsWxQZR77V_EV7mCkCUQ-28" value="1" style="text;html=1;align=center;verticalAlign=middle;resizable=0;points=[];autosize=1;strokeColor=none;fillColor=none;" parent="1" vertex="1">
          <mxGeometry x="-425" y="-582" width="30" height="30" as="geometry" />
        </mxCell>
        <mxCell id="VibqZZby71P674sYOKby-1" value="peso_inicial" style="ellipse;whiteSpace=wrap;html=1;align=center;" parent="1" vertex="1">
          <mxGeometry x="-1287.5" y="515" width="115" height="50" as="geometry" />
        </mxCell>
        <mxCell id="VibqZZby71P674sYOKby-3" value="" style="endArrow=none;html=1;rounded=0;exitX=0.5;exitY=1;exitDx=0;exitDy=0;entryX=0.5;entryY=0;entryDx=0;entryDy=0;" parent="1" source="VibqZZby71P674sYOKby-1" target="4yEKGmQm7jMLqb5Qw2JC-101" edge="1">
          <mxGeometry width="50" height="50" relative="1" as="geometry">
            <mxPoint x="-1165.18" y="538" as="sourcePoint" />
            <mxPoint x="-1225.18" y="598" as="targetPoint" />
          </mxGeometry>
        </mxCell>
        <mxCell id="VibqZZby71P674sYOKby-5" value="&lt;u&gt;cargo&lt;/u&gt;" style="ellipse;whiteSpace=wrap;html=1;align=center;direction=east;" parent="1" vertex="1">
          <mxGeometry x="-1900" y="415" width="110" height="50" as="geometry" />
        </mxCell>
        <mxCell id="VibqZZby71P674sYOKby-6" value="" style="endArrow=none;html=1;rounded=0;exitX=1;exitY=0.5;exitDx=0;exitDy=0;entryX=0;entryY=0.75;entryDx=0;entryDy=0;" parent="1" source="VibqZZby71P674sYOKby-5" target="4yEKGmQm7jMLqb5Qw2JC-168" edge="1">
          <mxGeometry width="50" height="50" relative="1" as="geometry">
            <mxPoint x="-1750" y="450" as="sourcePoint" />
            <mxPoint x="-1700" y="400" as="targetPoint" />
            <Array as="points">
              <mxPoint x="-1720" y="440" />
              <mxPoint x="-1720" y="426" />
            </Array>
          </mxGeometry>
        </mxCell>
        <mxCell id="VibqZZby71P674sYOKby-8" value="&lt;u&gt;entidades&lt;/u&gt;" style="ellipse;whiteSpace=wrap;html=1;align=center;direction=east;" parent="1" vertex="1">
          <mxGeometry x="-730" y="835" width="110" height="50" as="geometry" />
        </mxCell>
        <mxCell id="VibqZZby71P674sYOKby-9" value="" style="endArrow=none;html=1;rounded=0;entryX=0.5;entryY=1;entryDx=0;entryDy=0;exitX=0.5;exitY=0;exitDx=0;exitDy=0;" parent="1" source="VibqZZby71P674sYOKby-8" target="_ntqJAn3jPpiwG4FcgFy-25" edge="1">
          <mxGeometry width="50" height="50" relative="1" as="geometry">
            <mxPoint x="-586" y="820" as="sourcePoint" />
            <mxPoint x="-546" y="880" as="targetPoint" />
          </mxGeometry>
        </mxCell>
        <mxCell id="VibqZZby71P674sYOKby-11" value="" style="endArrow=none;html=1;rounded=0;entryX=0.911;entryY=0.979;entryDx=0;entryDy=0;entryPerimeter=0;exitX=0.5;exitY=0;exitDx=0;exitDy=0;" parent="1" source="VibqZZby71P674sYOKby-12" target="4yEKGmQm7jMLqb5Qw2JC-101" edge="1">
          <mxGeometry width="50" height="50" relative="1" as="geometry">
            <mxPoint x="-984.5799999999999" y="830" as="sourcePoint" />
            <mxPoint x="-934.5799999999999" y="780" as="targetPoint" />
            <Array as="points">
              <mxPoint x="-1096.5800000000002" y="690" />
              <mxPoint x="-1180" y="690" />
            </Array>
          </mxGeometry>
        </mxCell>
        <mxCell id="VibqZZby71P674sYOKby-12" value="&lt;u&gt;peso_final&lt;/u&gt;" style="ellipse;whiteSpace=wrap;html=1;align=center;direction=east;" parent="1" vertex="1">
          <mxGeometry x="-1152.0800000000002" y="705" width="110" height="50" as="geometry" />
        </mxCell>
        <mxCell id="5MeeMpIY68B_WioQ4X_y-2" value="" style="endArrow=none;html=1;rounded=0;entryX=0.5;entryY=1;entryDx=0;entryDy=0;exitX=0.5;exitY=0;exitDx=0;exitDy=0;" parent="1" source="4yEKGmQm7jMLqb5Qw2JC-43" target="4yEKGmQm7jMLqb5Qw2JC-58" edge="1">
          <mxGeometry width="50" height="50" relative="1" as="geometry">
            <mxPoint x="-2365.25" y="-632" as="sourcePoint" />
            <mxPoint x="-2365.25" y="-842" as="targetPoint" />
          </mxGeometry>
        </mxCell>
        <mxCell id="4yEKGmQm7jMLqb5Qw2JC-58" value="subtotal" style="ellipse;whiteSpace=wrap;html=1;align=center;direction=east;" parent="1" vertex="1">
          <mxGeometry x="-2420.5" y="-714" width="110" height="50" as="geometry" />
        </mxCell>
        <mxCell id="5MeeMpIY68B_WioQ4X_y-3" value="" style="endArrow=none;html=1;rounded=0;entryX=0.5;entryY=1;entryDx=0;entryDy=0;exitX=0.5;exitY=0;exitDx=0;exitDy=0;" parent="1" source="5MeeMpIY68B_WioQ4X_y-5" target="4yEKGmQm7jMLqb5Qw2JC-43" edge="1">
          <mxGeometry width="50" height="50" relative="1" as="geometry">
            <mxPoint x="-2365.25" y="-232" as="sourcePoint" />
            <mxPoint x="-2312.25" y="-322" as="targetPoint" />
          </mxGeometry>
        </mxCell>
        <mxCell id="5MeeMpIY68B_WioQ4X_y-5" value="manda" style="rhombus;whiteSpace=wrap;html=1;" parent="1" vertex="1">
          <mxGeometry x="-2405.5" y="-422" width="80" height="80" as="geometry" />
        </mxCell>
        <mxCell id="5MeeMpIY68B_WioQ4X_y-6" value="tb_notificacion" style="rounded=0;whiteSpace=wrap;html=1;direction=east;" parent="1" vertex="1">
          <mxGeometry x="-2425.5" y="-212" width="120" height="60" as="geometry" />
        </mxCell>
        <mxCell id="5MeeMpIY68B_WioQ4X_y-7" value="" style="endArrow=none;html=1;rounded=0;exitX=0.5;exitY=0;exitDx=0;exitDy=0;entryX=0.5;entryY=1;entryDx=0;entryDy=0;" parent="1" source="5MeeMpIY68B_WioQ4X_y-6" target="5MeeMpIY68B_WioQ4X_y-5" edge="1">
          <mxGeometry width="50" height="50" relative="1" as="geometry">
            <mxPoint x="-2272.25" y="-222" as="sourcePoint" />
            <mxPoint x="-2222.25" y="-272" as="targetPoint" />
          </mxGeometry>
        </mxCell>
        <mxCell id="5MeeMpIY68B_WioQ4X_y-11" value="estado_producto" style="ellipse;whiteSpace=wrap;html=1;align=center;fontStyle=4" parent="1" vertex="1">
          <mxGeometry x="-2232.25" y="-289" width="110" height="50" as="geometry" />
        </mxCell>
        <mxCell id="5MeeMpIY68B_WioQ4X_y-12" value="fecha_inicio" style="ellipse;whiteSpace=wrap;html=1;align=center;fontStyle=4" parent="1" vertex="1">
          <mxGeometry x="-2609.25" y="-122" width="110" height="50" as="geometry" />
        </mxCell>
        <mxCell id="5MeeMpIY68B_WioQ4X_y-13" value="fecha_final" style="ellipse;whiteSpace=wrap;html=1;align=center;fontStyle=4" parent="1" vertex="1">
          <mxGeometry x="-2560" y="-62" width="110" height="50" as="geometry" />
        </mxCell>
        <mxCell id="5MeeMpIY68B_WioQ4X_y-14" value="nombre" style="ellipse;whiteSpace=wrap;html=1;align=center;fontStyle=4" parent="1" vertex="1">
          <mxGeometry x="-2227.25" y="-122" width="110" height="50" as="geometry" />
        </mxCell>
        <mxCell id="5MeeMpIY68B_WioQ4X_y-15" value="descripcion" style="ellipse;whiteSpace=wrap;html=1;align=center;fontStyle=4" parent="1" vertex="1">
          <mxGeometry x="-2630" y="-207" width="110" height="50" as="geometry" />
        </mxCell>
        <mxCell id="5MeeMpIY68B_WioQ4X_y-16" value="id_facturas" style="ellipse;whiteSpace=wrap;html=1;align=center;fontStyle=4" parent="1" vertex="1">
          <mxGeometry x="-2279.25" y="-62" width="110" height="50" as="geometry" />
        </mxCell>
        <mxCell id="5MeeMpIY68B_WioQ4X_y-17" value="id_notificacion" style="ellipse;whiteSpace=wrap;html=1;align=center;fontStyle=4" parent="1" vertex="1">
          <mxGeometry x="-2420.5" y="-62" width="110" height="50" as="geometry" />
        </mxCell>
        <mxCell id="5MeeMpIY68B_WioQ4X_y-20" value="" style="endArrow=none;html=1;rounded=0;exitX=0.5;exitY=0;exitDx=0;exitDy=0;entryX=0.5;entryY=1;entryDx=0;entryDy=0;" parent="1" source="5MeeMpIY68B_WioQ4X_y-17" target="5MeeMpIY68B_WioQ4X_y-6" edge="1">
          <mxGeometry width="50" height="50" relative="1" as="geometry">
            <mxPoint x="-2472.25" y="-182" as="sourcePoint" />
            <mxPoint x="-2422.25" y="-232" as="targetPoint" />
          </mxGeometry>
        </mxCell>
        <mxCell id="5MeeMpIY68B_WioQ4X_y-21" value="" style="endArrow=none;html=1;rounded=0;exitX=0.5;exitY=0;exitDx=0;exitDy=0;entryX=0;entryY=0.75;entryDx=0;entryDy=0;" parent="1" source="5MeeMpIY68B_WioQ4X_y-12" target="5MeeMpIY68B_WioQ4X_y-6" edge="1">
          <mxGeometry width="50" height="50" relative="1" as="geometry">
            <mxPoint x="-2442.25" y="-72" as="sourcePoint" />
            <mxPoint x="-2392.25" y="-122" as="targetPoint" />
            <Array as="points">
              <mxPoint x="-2452.25" y="-122" />
              <mxPoint x="-2452.25" y="-167" />
            </Array>
          </mxGeometry>
        </mxCell>
        <mxCell id="5MeeMpIY68B_WioQ4X_y-22" value="" style="endArrow=none;html=1;rounded=0;exitX=0.5;exitY=0;exitDx=0;exitDy=0;entryX=-0.002;entryY=0.887;entryDx=0;entryDy=0;entryPerimeter=0;" parent="1" source="5MeeMpIY68B_WioQ4X_y-13" target="5MeeMpIY68B_WioQ4X_y-6" edge="1">
          <mxGeometry width="50" height="50" relative="1" as="geometry">
            <mxPoint x="-2432.25" y="-102" as="sourcePoint" />
            <mxPoint x="-2462.25" y="-102" as="targetPoint" />
            <Array as="points">
              <mxPoint x="-2505.25" y="-72" />
              <mxPoint x="-2442.25" y="-72" />
              <mxPoint x="-2442.25" y="-159" />
            </Array>
          </mxGeometry>
        </mxCell>
        <mxCell id="5MeeMpIY68B_WioQ4X_y-23" value="" style="endArrow=none;html=1;rounded=0;exitX=0.5;exitY=0;exitDx=0;exitDy=0;entryX=1.009;entryY=0.901;entryDx=0;entryDy=0;entryPerimeter=0;" parent="1" source="5MeeMpIY68B_WioQ4X_y-16" target="5MeeMpIY68B_WioQ4X_y-6" edge="1">
          <mxGeometry width="50" height="50" relative="1" as="geometry">
            <mxPoint x="-2282.25" y="-112" as="sourcePoint" />
            <mxPoint x="-2292.25" y="-162" as="targetPoint" />
            <Array as="points">
              <mxPoint x="-2224.25" y="-72" />
              <mxPoint x="-2282.25" y="-72" />
              <mxPoint x="-2282.25" y="-158" />
            </Array>
          </mxGeometry>
        </mxCell>
        <mxCell id="5MeeMpIY68B_WioQ4X_y-24" value="" style="endArrow=none;html=1;rounded=0;entryX=1;entryY=0.75;entryDx=0;entryDy=0;exitX=0.5;exitY=0;exitDx=0;exitDy=0;" parent="1" source="5MeeMpIY68B_WioQ4X_y-14" target="5MeeMpIY68B_WioQ4X_y-6" edge="1">
          <mxGeometry width="50" height="50" relative="1" as="geometry">
            <mxPoint x="-2212.25" y="-122" as="sourcePoint" />
            <mxPoint x="-2162.25" y="-172" as="targetPoint" />
            <Array as="points">
              <mxPoint x="-2272.25" y="-122" />
              <mxPoint x="-2272.25" y="-167" />
            </Array>
          </mxGeometry>
        </mxCell>
        <mxCell id="5MeeMpIY68B_WioQ4X_y-29" value="numero_telefono" style="ellipse;whiteSpace=wrap;html=1;align=center;direction=east;" parent="1" vertex="1">
          <mxGeometry x="-1665" y="498" width="110" height="50" as="geometry" />
        </mxCell>
        <mxCell id="IHdlRu1uRAPBCa68S91L-1" value="" style="endArrow=none;html=1;rounded=0;exitX=1;exitY=0.25;exitDx=0;exitDy=0;entryX=0;entryY=0.5;entryDx=0;entryDy=0;" parent="1" source="5MeeMpIY68B_WioQ4X_y-6" target="5MeeMpIY68B_WioQ4X_y-11" edge="1">
          <mxGeometry width="50" height="50" relative="1" as="geometry">
            <mxPoint x="-2312.25" y="-242" as="sourcePoint" />
            <mxPoint x="-2262.25" y="-292" as="targetPoint" />
            <Array as="points">
              <mxPoint x="-2282.25" y="-197" />
              <mxPoint x="-2282.25" y="-264" />
            </Array>
          </mxGeometry>
        </mxCell>
        <mxCell id="IHdlRu1uRAPBCa68S91L-2" value="" style="endArrow=none;html=1;rounded=0;entryX=0.5;entryY=1;entryDx=0;entryDy=0;exitX=0.5;exitY=0;exitDx=0;exitDy=0;" parent="1" source="5MeeMpIY68B_WioQ4X_y-29" target="4yEKGmQm7jMLqb5Qw2JC-168" edge="1">
          <mxGeometry width="50" height="50" relative="1" as="geometry">
            <mxPoint x="-1510" y="530" as="sourcePoint" />
            <mxPoint x="-1460" y="480" as="targetPoint" />
          </mxGeometry>
        </mxCell>
        <mxCell id="IHdlRu1uRAPBCa68S91L-3" value="1" style="text;html=1;align=center;verticalAlign=middle;resizable=0;points=[];autosize=1;strokeColor=none;fillColor=none;" parent="1" vertex="1">
          <mxGeometry x="-2272.25" y="-212" width="30" height="30" as="geometry" />
        </mxCell>
        <mxCell id="IHdlRu1uRAPBCa68S91L-4" value="1" style="text;html=1;align=center;verticalAlign=middle;resizable=0;points=[];autosize=1;strokeColor=none;fillColor=none;" parent="1" vertex="1">
          <mxGeometry x="-2272.25" y="-182" width="30" height="30" as="geometry" />
        </mxCell>
        <mxCell id="IHdlRu1uRAPBCa68S91L-5" value="1" style="text;html=1;align=center;verticalAlign=middle;resizable=0;points=[];autosize=1;strokeColor=none;fillColor=none;" parent="1" vertex="1">
          <mxGeometry x="-1637.25" y="218" width="30" height="30" as="geometry" />
        </mxCell>
        <mxCell id="IHdlRu1uRAPBCa68S91L-6" value="N" style="text;html=1;align=center;verticalAlign=middle;resizable=0;points=[];autosize=1;strokeColor=none;fillColor=none;" parent="1" vertex="1">
          <mxGeometry x="-1607.25" y="218" width="30" height="30" as="geometry" />
        </mxCell>
        <mxCell id="h4NsjjRGWPDq7ixpAUhk-1" value="sufijo_cliente" style="ellipse;whiteSpace=wrap;html=1;align=center;direction=east;" parent="1" vertex="1">
          <mxGeometry x="-384.25999999999976" y="-820" width="110" height="50" as="geometry" />
        </mxCell>
        <mxCell id="h4NsjjRGWPDq7ixpAUhk-2" value="" style="endArrow=none;html=1;rounded=0;exitX=0.75;exitY=0;exitDx=0;exitDy=0;entryX=0.5;entryY=1;entryDx=0;entryDy=0;" parent="1" source="4yEKGmQm7jMLqb5Qw2JC-1" target="h4NsjjRGWPDq7ixpAUhk-1" edge="1">
          <mxGeometry width="50" height="50" relative="1" as="geometry">
            <mxPoint x="-410" y="-650" as="sourcePoint" />
            <mxPoint x="-360" y="-700" as="targetPoint" />
            <Array as="points">
              <mxPoint x="-397" y="-750" />
              <mxPoint x="-329" y="-750" />
            </Array>
          </mxGeometry>
        </mxCell>
        <mxCell id="h4NsjjRGWPDq7ixpAUhk-3" value="nombre_producto&lt;span style=&quot;color: rgba(0, 0, 0, 0); font-family: monospace; font-size: 0px; text-align: start; text-wrap: nowrap;&quot;&gt;%3CmxGraphModel%3E%3Croot%3E%3CmxCell%20id%3D%220%22%2F%3E%3CmxCell%20id%3D%221%22%20parent%3D%220%22%2F%3E%3CmxCell%20id%3D%222%22%20value%3D%22id_productos%22%20style%3D%22ellipse%3BwhiteSpace%3Dwrap%3Bhtml%3D1%3Balign%3Dcenter%3BfontStyle%3D4%22%20vertex%3D%221%22%20parent%3D%221%22%3E%3CmxGeometry%20x%3D%22382.5%22%20y%3D%22570%22%20width%3D%22115%22%20height%3D%2250%22%20as%3D%22geometry%22%2F%3E%3C%2FmxCell%3E%3C%2Froot%3E%3C%2FmxGraphModel%3E&lt;/span&gt;" style="ellipse;whiteSpace=wrap;html=1;align=center;fontStyle=4" parent="1" vertex="1">
          <mxGeometry x="-1150" y="1300" width="115" height="50" as="geometry" />
        </mxCell>
        <mxCell id="h4NsjjRGWPDq7ixpAUhk-4" value="" style="endArrow=none;html=1;rounded=0;exitX=0.656;exitY=1.001;exitDx=0;exitDy=0;exitPerimeter=0;entryX=0.5;entryY=0;entryDx=0;entryDy=0;" parent="1" source="vwYCaHOfWbuZlIVckbCC-2" target="h4NsjjRGWPDq7ixpAUhk-3" edge="1">
          <mxGeometry width="50" height="50" relative="1" as="geometry">
            <mxPoint x="-1120" y="1260" as="sourcePoint" />
            <mxPoint x="-1070" y="1210" as="targetPoint" />
            <Array as="points">
              <mxPoint x="-1208" y="1230" />
              <mxPoint x="-1092" y="1230" />
            </Array>
          </mxGeometry>
        </mxCell>
        <mxCell id="h4NsjjRGWPDq7ixpAUhk-7" value="fecha_estimada" style="ellipse;whiteSpace=wrap;html=1;align=center;fontStyle=4" parent="1" vertex="1">
          <mxGeometry x="-2680" y="-702" width="115" height="50" as="geometry" />
        </mxCell>
        <mxCell id="h4NsjjRGWPDq7ixpAUhk-9" value="subtotal" style="ellipse;whiteSpace=wrap;html=1;align=center;fontStyle=4" parent="1" vertex="1">
          <mxGeometry x="-2169.75" y="-702" width="115" height="50" as="geometry" />
        </mxCell>
        <mxCell id="h4NsjjRGWPDq7ixpAUhk-10" value="" style="endArrow=none;html=1;rounded=0;exitX=1;exitY=0.5;exitDx=0;exitDy=0;entryX=0;entryY=0.25;entryDx=0;entryDy=0;" parent="1" source="h4NsjjRGWPDq7ixpAUhk-7" target="4yEKGmQm7jMLqb5Qw2JC-43" edge="1">
          <mxGeometry width="50" height="50" relative="1" as="geometry">
            <mxPoint x="-2532.25" y="-612" as="sourcePoint" />
            <mxPoint x="-2482.25" y="-662" as="targetPoint" />
            <Array as="points">
              <mxPoint x="-2552.25" y="-677" />
              <mxPoint x="-2552.25" y="-617" />
            </Array>
          </mxGeometry>
        </mxCell>
        <mxCell id="h4NsjjRGWPDq7ixpAUhk-11" value="" style="endArrow=none;html=1;rounded=0;entryX=0;entryY=0.5;entryDx=0;entryDy=0;exitX=1;exitY=0.25;exitDx=0;exitDy=0;" parent="1" source="4yEKGmQm7jMLqb5Qw2JC-43" target="h4NsjjRGWPDq7ixpAUhk-9" edge="1">
          <mxGeometry width="50" height="50" relative="1" as="geometry">
            <mxPoint x="-2192.25" y="-622" as="sourcePoint" />
            <mxPoint x="-2142.25" y="-672" as="targetPoint" />
            <Array as="points">
              <mxPoint x="-2182.25" y="-617" />
              <mxPoint x="-2182.25" y="-677" />
            </Array>
          </mxGeometry>
        </mxCell>
        <mxCell id="h4NsjjRGWPDq7ixpAUhk-12" value="numero_seguimiento&lt;br&gt;_orden" style="ellipse;whiteSpace=wrap;html=1;align=center;fontStyle=4" parent="1" vertex="1">
          <mxGeometry x="-2669.25" y="-512" width="115" height="50" as="geometry" />
        </mxCell>
        <mxCell id="h4NsjjRGWPDq7ixpAUhk-13" value="fecha_expiracion" style="ellipse;whiteSpace=wrap;html=1;align=center;fontStyle=4" parent="1" vertex="1">
          <mxGeometry x="-2164.25" y="-512" width="115" height="50" as="geometry" />
        </mxCell>
        <mxCell id="h4NsjjRGWPDq7ixpAUhk-14" value="" style="endArrow=none;html=1;rounded=0;exitX=1;exitY=0.5;exitDx=0;exitDy=0;entryX=0;entryY=0.75;entryDx=0;entryDy=0;" parent="1" source="h4NsjjRGWPDq7ixpAUhk-12" target="4yEKGmQm7jMLqb5Qw2JC-43" edge="1">
          <mxGeometry width="50" height="50" relative="1" as="geometry">
            <mxPoint x="-2502.25" y="-492" as="sourcePoint" />
            <mxPoint x="-2452.25" y="-542" as="targetPoint" />
            <Array as="points">
              <mxPoint x="-2482.25" y="-487" />
              <mxPoint x="-2482.25" y="-587" />
            </Array>
          </mxGeometry>
        </mxCell>
        <mxCell id="h4NsjjRGWPDq7ixpAUhk-15" value="" style="endArrow=none;html=1;rounded=0;exitX=1;exitY=0.75;exitDx=0;exitDy=0;entryX=0;entryY=0.5;entryDx=0;entryDy=0;" parent="1" source="4yEKGmQm7jMLqb5Qw2JC-43" target="h4NsjjRGWPDq7ixpAUhk-13" edge="1">
          <mxGeometry width="50" height="50" relative="1" as="geometry">
            <mxPoint x="-2202.25" y="-522" as="sourcePoint" />
            <mxPoint x="-2152.25" y="-572" as="targetPoint" />
            <Array as="points">
              <mxPoint x="-2242.25" y="-587" />
              <mxPoint x="-2242.25" y="-487" />
            </Array>
          </mxGeometry>
        </mxCell>
        <mxCell id="h4NsjjRGWPDq7ixpAUhk-16" value="" style="endArrow=none;html=1;rounded=0;exitX=0.998;exitY=0.401;exitDx=0;exitDy=0;exitPerimeter=0;entryX=0;entryY=0.5;entryDx=0;entryDy=0;" parent="1" source="4yEKGmQm7jMLqb5Qw2JC-43" target="h4NsjjRGWPDq7ixpAUhk-17" edge="1">
          <mxGeometry width="50" height="50" relative="1" as="geometry">
            <mxPoint x="-1972.25" y="-582" as="sourcePoint" />
            <mxPoint x="-1592.25" y="-642" as="targetPoint" />
            <Array as="points">
              <mxPoint x="-2172.25" y="-608" />
              <mxPoint x="-2172.25" y="-642" />
            </Array>
          </mxGeometry>
        </mxCell>
        <mxCell id="h4NsjjRGWPDq7ixpAUhk-17" value="tb_destino_productos" style="rounded=0;whiteSpace=wrap;html=1;" parent="1" vertex="1">
          <mxGeometry x="-1582.25" y="-672" width="120" height="60" as="geometry" />
        </mxCell>
        <mxCell id="h4NsjjRGWPDq7ixpAUhk-18" value="" style="endArrow=none;html=1;rounded=0;exitX=0.5;exitY=0;exitDx=0;exitDy=0;entryX=0.5;entryY=1;entryDx=0;entryDy=0;" parent="1" source="h4NsjjRGWPDq7ixpAUhk-17" target="h4NsjjRGWPDq7ixpAUhk-19" edge="1">
          <mxGeometry width="50" height="50" relative="1" as="geometry">
            <mxPoint x="-1472.25" y="-732" as="sourcePoint" />
            <mxPoint x="-1522.25" y="-762" as="targetPoint" />
          </mxGeometry>
        </mxCell>
        <mxCell id="h4NsjjRGWPDq7ixpAUhk-19" value="id_destino" style="ellipse;whiteSpace=wrap;html=1;align=center;direction=east;" parent="1" vertex="1">
          <mxGeometry x="-1577.25" y="-794" width="110" height="50" as="geometry" />
        </mxCell>
        <mxCell id="h4NsjjRGWPDq7ixpAUhk-20" value="" style="endArrow=none;html=1;rounded=0;entryX=0;entryY=0.5;entryDx=0;entryDy=0;exitX=1;exitY=0.5;exitDx=0;exitDy=0;" parent="1" source="h4NsjjRGWPDq7ixpAUhk-17" target="h4NsjjRGWPDq7ixpAUhk-21" edge="1">
          <mxGeometry width="50" height="50" relative="1" as="geometry">
            <mxPoint x="-1452.25" y="-632" as="sourcePoint" />
            <mxPoint x="-1632.25" y="-752" as="targetPoint" />
          </mxGeometry>
        </mxCell>
        <mxCell id="h4NsjjRGWPDq7ixpAUhk-21" value="empresas" style="ellipse;whiteSpace=wrap;html=1;align=center;direction=east;" parent="1" vertex="1">
          <mxGeometry x="-1392.25" y="-667" width="110" height="50" as="geometry" />
        </mxCell>
        <mxCell id="h4NsjjRGWPDq7ixpAUhk-22" value="tiene" style="rhombus;whiteSpace=wrap;html=1;" parent="1" vertex="1">
          <mxGeometry x="-1797.25" y="-682" width="80" height="80" as="geometry" />
        </mxCell>
        <mxCell id="h4NsjjRGWPDq7ixpAUhk-25" value="id_destino" style="ellipse;whiteSpace=wrap;html=1;align=center;direction=east;" parent="1" vertex="1">
          <mxGeometry x="-2034.75" y="-667" width="110" height="50" as="geometry" />
        </mxCell>
        <mxCell id="h4NsjjRGWPDq7ixpAUhk-28" value="1" style="text;html=1;align=center;verticalAlign=middle;resizable=0;points=[];autosize=1;strokeColor=none;fillColor=none;" parent="1" vertex="1">
          <mxGeometry x="-1607.25" y="-664" width="30" height="30" as="geometry" />
        </mxCell>
        <mxCell id="h4NsjjRGWPDq7ixpAUhk-30" value="1" style="text;html=1;align=center;verticalAlign=middle;resizable=0;points=[];autosize=1;strokeColor=none;fillColor=none;" parent="1" vertex="1">
          <mxGeometry x="-1607.25" y="-647" width="30" height="30" as="geometry" />
        </mxCell>
        <mxCell id="h4NsjjRGWPDq7ixpAUhk-32" value="1" style="text;html=1;align=center;verticalAlign=middle;resizable=0;points=[];autosize=1;strokeColor=none;fillColor=none;" parent="1" vertex="1">
          <mxGeometry x="-2177.25" y="-664" width="30" height="30" as="geometry" />
        </mxCell>
        <mxCell id="h4NsjjRGWPDq7ixpAUhk-36" value="N" style="text;html=1;align=center;verticalAlign=middle;resizable=0;points=[];autosize=1;strokeColor=none;fillColor=none;" parent="1" vertex="1">
          <mxGeometry x="-2177.25" y="-647" width="30" height="30" as="geometry" />
        </mxCell>
        <mxCell id="h4NsjjRGWPDq7ixpAUhk-42" value="tb_productos_cotizados" style="rounded=0;whiteSpace=wrap;html=1;" parent="1" vertex="1">
          <mxGeometry x="-496" y="1108" width="140" height="61" as="geometry" />
        </mxCell>
        <mxCell id="h4NsjjRGWPDq7ixpAUhk-43" value="" style="endArrow=none;html=1;rounded=0;entryX=0.5;entryY=1;entryDx=0;entryDy=0;exitX=0.5;exitY=0;exitDx=0;exitDy=0;" parent="1" source="h4NsjjRGWPDq7ixpAUhk-44" target="h4NsjjRGWPDq7ixpAUhk-42" edge="1">
          <mxGeometry width="50" height="50" relative="1" as="geometry">
            <mxPoint x="-419.75" y="1200" as="sourcePoint" />
            <mxPoint x="-404.75" y="1230" as="targetPoint" />
          </mxGeometry>
        </mxCell>
        <mxCell id="h4NsjjRGWPDq7ixpAUhk-44" value="id_producto_cotizado" style="ellipse;whiteSpace=wrap;html=1;align=center;direction=east;" parent="1" vertex="1">
          <mxGeometry x="-485.5" y="1202" width="120" height="57" as="geometry" />
        </mxCell>
        <mxCell id="h4NsjjRGWPDq7ixpAUhk-45" value="id_producto" style="ellipse;whiteSpace=wrap;html=1;align=center;direction=east;" parent="1" vertex="1">
          <mxGeometry x="-626" y="1113.5" width="110" height="50" as="geometry" />
        </mxCell>
        <mxCell id="h4NsjjRGWPDq7ixpAUhk-46" value="" style="endArrow=none;html=1;rounded=0;entryX=0;entryY=0.5;entryDx=0;entryDy=0;exitX=1;exitY=0.5;exitDx=0;exitDy=0;" parent="1" source="h4NsjjRGWPDq7ixpAUhk-45" target="h4NsjjRGWPDq7ixpAUhk-42" edge="1">
          <mxGeometry width="50" height="50" relative="1" as="geometry">
            <mxPoint x="-703.5" y="1240" as="sourcePoint" />
            <mxPoint x="-653.5" y="1190" as="targetPoint" />
          </mxGeometry>
        </mxCell>
        <mxCell id="h4NsjjRGWPDq7ixpAUhk-47" value="id_cotizacion" style="ellipse;whiteSpace=wrap;html=1;align=center;direction=east;" parent="1" vertex="1">
          <mxGeometry x="-481" y="1030" width="110" height="50" as="geometry" />
        </mxCell>
        <mxCell id="h4NsjjRGWPDq7ixpAUhk-48" value="" style="endArrow=none;html=1;rounded=0;exitX=0.5;exitY=0;exitDx=0;exitDy=0;entryX=0.5;entryY=1;entryDx=0;entryDy=0;" parent="1" source="h4NsjjRGWPDq7ixpAUhk-42" target="h4NsjjRGWPDq7ixpAUhk-47" edge="1">
          <mxGeometry width="50" height="50" relative="1" as="geometry">
            <mxPoint x="-333.5" y="1120" as="sourcePoint" />
            <mxPoint x="-283.5" y="1070" as="targetPoint" />
          </mxGeometry>
        </mxCell>
        <mxCell id="WBzcEhSkZMh-hPMLEhm3-1" value="" style="endArrow=none;html=1;rounded=0;exitX=0.75;exitY=0;exitDx=0;exitDy=0;entryX=0.5;entryY=1;entryDx=0;entryDy=0;" parent="1" source="4yEKGmQm7jMLqb5Qw2JC-168" target="WBzcEhSkZMh-hPMLEhm3-2" edge="1">
          <mxGeometry width="50" height="50" relative="1" as="geometry">
            <mxPoint x="-1550" y="340" as="sourcePoint" />
            <mxPoint x="-1520" y="280" as="targetPoint" />
            <Array as="points">
              <mxPoint x="-1580" y="340" />
              <mxPoint x="-1467" y="340" />
            </Array>
          </mxGeometry>
        </mxCell>
        <mxCell id="WBzcEhSkZMh-hPMLEhm3-2" value="imagen" style="ellipse;whiteSpace=wrap;html=1;align=center;direction=east;" parent="1" vertex="1">
          <mxGeometry x="-1522.5" y="268" width="110" height="50" as="geometry" />
        </mxCell>
        <mxCell id="IzAd-LBRWQO8ilangb6x-1" value="tiempo_final" style="ellipse;whiteSpace=wrap;html=1;align=center;direction=east;" parent="1" vertex="1">
          <mxGeometry x="-559.01" y="660" width="110" height="50" as="geometry" />
        </mxCell>
        <mxCell id="IzAd-LBRWQO8ilangb6x-2" value="" style="endArrow=none;html=1;rounded=0;exitX=0.858;exitY=0.034;exitDx=0;exitDy=0;exitPerimeter=0;entryX=0;entryY=0.5;entryDx=0;entryDy=0;" parent="1" source="_ntqJAn3jPpiwG4FcgFy-25" target="IzAd-LBRWQO8ilangb6x-1" edge="1">
          <mxGeometry width="50" height="50" relative="1" as="geometry">
            <mxPoint x="-580" y="700" as="sourcePoint" />
            <mxPoint x="-618" y="660" as="targetPoint" />
            <Array as="points">
              <mxPoint x="-618" y="685" />
            </Array>
          </mxGeometry>
        </mxCell>
        <mxCell id="IzAd-LBRWQO8ilangb6x-3" value="" style="endArrow=none;html=1;rounded=0;entryX=0.5;entryY=1;entryDx=0;entryDy=0;exitX=0.5;exitY=0;exitDx=0;exitDy=0;" parent="1" source="IzAd-LBRWQO8ilangb6x-4" target="vwYCaHOfWbuZlIVckbCC-43" edge="1">
          <mxGeometry width="50" height="50" relative="1" as="geometry">
            <mxPoint x="-193" y="720" as="sourcePoint" />
            <mxPoint x="-130" y="720" as="targetPoint" />
          </mxGeometry>
        </mxCell>
        <mxCell id="IzAd-LBRWQO8ilangb6x-4" value="tiene" style="rhombus;whiteSpace=wrap;html=1;" parent="1" vertex="1">
          <mxGeometry x="-233.25" y="708.5" width="80" height="80" as="geometry" />
        </mxCell>
        <mxCell id="IzAd-LBRWQO8ilangb6x-5" value="tb_medio_envio" style="rounded=0;whiteSpace=wrap;html=1;" parent="1" vertex="1">
          <mxGeometry x="-252" y="860" width="120" height="60" as="geometry" />
        </mxCell>
        <mxCell id="IzAd-LBRWQO8ilangb6x-6" value="" style="endArrow=none;html=1;rounded=0;exitX=0.5;exitY=0;exitDx=0;exitDy=0;entryX=0.5;entryY=1;entryDx=0;entryDy=0;" parent="1" source="IzAd-LBRWQO8ilangb6x-5" target="IzAd-LBRWQO8ilangb6x-4" edge="1">
          <mxGeometry width="50" height="50" relative="1" as="geometry">
            <mxPoint x="-310" y="810" as="sourcePoint" />
            <mxPoint x="-260" y="760" as="targetPoint" />
          </mxGeometry>
        </mxCell>
        <mxCell id="IzAd-LBRWQO8ilangb6x-7" value="tipo_envio" style="ellipse;whiteSpace=wrap;html=1;align=center;" parent="1" vertex="1">
          <mxGeometry x="-116" y="865" width="128.5" height="50" as="geometry" />
        </mxCell>
        <mxCell id="IzAd-LBRWQO8ilangb6x-8" value="id_medio_envio" style="ellipse;whiteSpace=wrap;html=1;align=center;" parent="1" vertex="1">
          <mxGeometry x="-257" y="950" width="128.5" height="50" as="geometry" />
        </mxCell>
        <mxCell id="IzAd-LBRWQO8ilangb6x-9" value="" style="endArrow=none;html=1;rounded=0;exitX=0.5;exitY=0;exitDx=0;exitDy=0;entryX=0.5;entryY=1;entryDx=0;entryDy=0;" parent="1" source="IzAd-LBRWQO8ilangb6x-8" target="IzAd-LBRWQO8ilangb6x-5" edge="1">
          <mxGeometry width="50" height="50" relative="1" as="geometry">
            <mxPoint x="-140" y="920" as="sourcePoint" />
            <mxPoint x="-90" y="870" as="targetPoint" />
          </mxGeometry>
        </mxCell>
        <mxCell id="IzAd-LBRWQO8ilangb6x-10" value="" style="endArrow=none;html=1;rounded=0;exitX=1;exitY=0.5;exitDx=0;exitDy=0;entryX=0;entryY=0.5;entryDx=0;entryDy=0;" parent="1" source="IzAd-LBRWQO8ilangb6x-5" target="IzAd-LBRWQO8ilangb6x-7" edge="1">
          <mxGeometry width="50" height="50" relative="1" as="geometry">
            <mxPoint x="-150" y="880" as="sourcePoint" />
            <mxPoint x="-100" y="830" as="targetPoint" />
          </mxGeometry>
        </mxCell>
        <mxCell id="IzAd-LBRWQO8ilangb6x-11" value="1" style="text;html=1;align=center;verticalAlign=middle;resizable=0;points=[];autosize=1;strokeColor=none;fillColor=none;" parent="1" vertex="1">
          <mxGeometry x="-221.76" y="628" width="30" height="30" as="geometry" />
        </mxCell>
        <mxCell id="IzAd-LBRWQO8ilangb6x-12" value="N" style="text;html=1;align=center;verticalAlign=middle;resizable=0;points=[];autosize=1;strokeColor=none;fillColor=none;" parent="1" vertex="1">
          <mxGeometry x="-195" y="628" width="30" height="30" as="geometry" />
        </mxCell>
        <mxCell id="IzAd-LBRWQO8ilangb6x-13" value="1" style="text;html=1;align=center;verticalAlign=middle;resizable=0;points=[];autosize=1;strokeColor=none;fillColor=none;" parent="1" vertex="1">
          <mxGeometry x="-220" y="835" width="30" height="30" as="geometry" />
        </mxCell>
        <mxCell id="IzAd-LBRWQO8ilangb6x-14" value="1" style="text;html=1;align=center;verticalAlign=middle;resizable=0;points=[];autosize=1;strokeColor=none;fillColor=none;" parent="1" vertex="1">
          <mxGeometry x="-197" y="835" width="30" height="30" as="geometry" />
        </mxCell>
        <mxCell id="IzAd-LBRWQO8ilangb6x-16" value="Impuesto_final" style="ellipse;whiteSpace=wrap;html=1;align=center;" parent="1" vertex="1">
          <mxGeometry x="-730" y="240" width="110" height="50" as="geometry" />
        </mxCell>
        <mxCell id="IzAd-LBRWQO8ilangb6x-17" value="&lt;span style=&quot;text-align: left;&quot;&gt;impuesto_inicial&lt;/span&gt;" style="ellipse;whiteSpace=wrap;html=1;align=center;" parent="1" vertex="1">
          <mxGeometry x="-248.25" y="230" width="110" height="50" as="geometry" />
        </mxCell>
        <mxCell id="IzAd-LBRWQO8ilangb6x-18" value="" style="endArrow=none;html=1;rounded=0;exitX=1;exitY=0.5;exitDx=0;exitDy=0;entryX=-0.001;entryY=0.173;entryDx=0;entryDy=0;entryPerimeter=0;" parent="1" source="IzAd-LBRWQO8ilangb6x-16" target="vwYCaHOfWbuZlIVckbCC-36" edge="1">
          <mxGeometry width="50" height="50" relative="1" as="geometry">
            <mxPoint x="-550" y="370" as="sourcePoint" />
            <mxPoint x="-490" y="390" as="targetPoint" />
            <Array as="points">
              <mxPoint x="-580" y="265" />
              <mxPoint x="-580" y="390" />
            </Array>
          </mxGeometry>
        </mxCell>
        <mxCell id="IzAd-LBRWQO8ilangb6x-19" value="" style="endArrow=none;html=1;rounded=0;exitX=1;exitY=0;exitDx=0;exitDy=0;entryX=0;entryY=0.5;entryDx=0;entryDy=0;" parent="1" source="vwYCaHOfWbuZlIVckbCC-36" target="IzAd-LBRWQO8ilangb6x-17" edge="1">
          <mxGeometry width="50" height="50" relative="1" as="geometry">
            <mxPoint x="-310" y="350" as="sourcePoint" />
            <mxPoint x="-260" y="300" as="targetPoint" />
            <Array as="points">
              <mxPoint x="-290" y="380" />
              <mxPoint x="-290" y="255" />
            </Array>
          </mxGeometry>
        </mxCell>
        <mxCell id="IzAd-LBRWQO8ilangb6x-28" value="" style="endArrow=none;html=1;rounded=0;exitX=0.5;exitY=0;exitDx=0;exitDy=0;entryX=0.5;entryY=1;entryDx=0;entryDy=0;" parent="1" source="4yEKGmQm7jMLqb5Qw2JC-125" target="4yEKGmQm7jMLqb5Qw2JC-101" edge="1">
          <mxGeometry width="50" height="50" relative="1" as="geometry">
            <mxPoint x="-1245.18" y="748" as="sourcePoint" />
            <mxPoint x="-1195.18" y="698" as="targetPoint" />
          </mxGeometry>
        </mxCell>
        <mxCell id="IzAd-LBRWQO8ilangb6x-29" value="" style="endArrow=none;html=1;rounded=0;exitX=0.5;exitY=0;exitDx=0;exitDy=0;entryX=0.5;entryY=1;entryDx=0;entryDy=0;" parent="1" source="4yEKGmQm7jMLqb5Qw2JC-121" target="4yEKGmQm7jMLqb5Qw2JC-125" edge="1">
          <mxGeometry width="50" height="50" relative="1" as="geometry">
            <mxPoint x="-1200" y="890" as="sourcePoint" />
            <mxPoint x="-1150" y="840" as="targetPoint" />
          </mxGeometry>
        </mxCell>
        <mxCell id="IzAd-LBRWQO8ilangb6x-30" value="" style="endArrow=none;html=1;rounded=0;exitX=0.5;exitY=0;exitDx=0;exitDy=0;entryX=0.5;entryY=1;entryDx=0;entryDy=0;" parent="1" source="h4NsjjRGWPDq7ixpAUhk-47" target="4yEKGmQm7jMLqb5Qw2JC-149" edge="1">
          <mxGeometry width="50" height="50" relative="1" as="geometry">
            <mxPoint x="-400" y="980" as="sourcePoint" />
            <mxPoint x="-350" y="930" as="targetPoint" />
          </mxGeometry>
        </mxCell>
        <mxCell id="IzAd-LBRWQO8ilangb6x-31" value="" style="endArrow=none;html=1;rounded=0;exitX=1;exitY=0.5;exitDx=0;exitDy=0;entryX=0;entryY=0.5;entryDx=0;entryDy=0;" parent="1" source="vwYCaHOfWbuZlIVckbCC-5" target="h4NsjjRGWPDq7ixpAUhk-45" edge="1">
          <mxGeometry width="50" height="50" relative="1" as="geometry">
            <mxPoint x="-970" y="1120" as="sourcePoint" />
            <mxPoint x="-920" y="1070" as="targetPoint" />
          </mxGeometry>
        </mxCell>
        <mxCell id="IzAd-LBRWQO8ilangb6x-32" value="tiene" style="rhombus;whiteSpace=wrap;html=1;" parent="1" vertex="1">
          <mxGeometry x="-842" y="1099" width="80" height="80" as="geometry" />
        </mxCell>
        <mxCell id="IzAd-LBRWQO8ilangb6x-33" value="1" style="text;html=1;align=center;verticalAlign=middle;resizable=0;points=[];autosize=1;strokeColor=none;fillColor=none;" parent="1" vertex="1">
          <mxGeometry x="-985" y="1108" width="30" height="30" as="geometry" />
        </mxCell>
        <mxCell id="IzAd-LBRWQO8ilangb6x-35" value="1" style="text;html=1;align=center;verticalAlign=middle;resizable=0;points=[];autosize=1;strokeColor=none;fillColor=none;" parent="1" vertex="1">
          <mxGeometry x="-985" y="1138" width="30" height="30" as="geometry" />
        </mxCell>
        <mxCell id="IzAd-LBRWQO8ilangb6x-36" value="1" style="text;html=1;align=center;verticalAlign=middle;resizable=0;points=[];autosize=1;strokeColor=none;fillColor=none;" parent="1" vertex="1">
          <mxGeometry x="-655" y="1108" width="30" height="30" as="geometry" />
        </mxCell>
        <mxCell id="IzAd-LBRWQO8ilangb6x-37" value="N" style="text;html=1;align=center;verticalAlign=middle;resizable=0;points=[];autosize=1;strokeColor=none;fillColor=none;" parent="1" vertex="1">
          <mxGeometry x="-655" y="1138" width="30" height="30" as="geometry" />
        </mxCell>
        <mxCell id="IzAd-LBRWQO8ilangb6x-38" value="1" style="text;html=1;align=center;verticalAlign=middle;resizable=0;points=[];autosize=1;strokeColor=none;fillColor=none;" parent="1" vertex="1">
          <mxGeometry x="-455" y="998" width="30" height="30" as="geometry" />
        </mxCell>
        <mxCell id="IzAd-LBRWQO8ilangb6x-39" value="N" style="text;html=1;align=center;verticalAlign=middle;resizable=0;points=[];autosize=1;strokeColor=none;fillColor=none;" parent="1" vertex="1">
          <mxGeometry x="-425" y="998" width="30" height="30" as="geometry" />
        </mxCell>
        <mxCell id="IzAd-LBRWQO8ilangb6x-40" value="1" style="text;html=1;align=center;verticalAlign=middle;resizable=0;points=[];autosize=1;strokeColor=none;fillColor=none;" parent="1" vertex="1">
          <mxGeometry x="-455" y="628" width="30" height="30" as="geometry" />
        </mxCell>
        <mxCell id="IzAd-LBRWQO8ilangb6x-41" value="1" style="text;html=1;align=center;verticalAlign=middle;resizable=0;points=[];autosize=1;strokeColor=none;fillColor=none;" parent="1" vertex="1">
          <mxGeometry x="-425" y="628" width="30" height="30" as="geometry" />
        </mxCell>
        <mxCell id="IzAd-LBRWQO8ilangb6x-42" value="1" style="text;html=1;align=center;verticalAlign=middle;resizable=0;points=[];autosize=1;strokeColor=none;fillColor=none;" parent="1" vertex="1">
          <mxGeometry x="-1265" y="968" width="30" height="30" as="geometry" />
        </mxCell>
        <mxCell id="IzAd-LBRWQO8ilangb6x-43" value="N" style="text;html=1;align=center;verticalAlign=middle;resizable=0;points=[];autosize=1;strokeColor=none;fillColor=none;" parent="1" vertex="1">
          <mxGeometry x="-1225" y="968" width="30" height="30" as="geometry" />
        </mxCell>
        <mxCell id="IzAd-LBRWQO8ilangb6x-44" value="1" style="text;html=1;align=center;verticalAlign=middle;resizable=0;points=[];autosize=1;strokeColor=none;fillColor=none;" parent="1" vertex="1">
          <mxGeometry x="-1265" y="668" width="30" height="30" as="geometry" />
        </mxCell>
        <mxCell id="IzAd-LBRWQO8ilangb6x-45" value="1" style="text;html=1;align=center;verticalAlign=middle;resizable=0;points=[];autosize=1;strokeColor=none;fillColor=none;" parent="1" vertex="1">
          <mxGeometry x="-1225" y="668" width="30" height="30" as="geometry" />
        </mxCell>
        <mxCell id="IzAd-LBRWQO8ilangb6x-46" value="" style="endArrow=none;html=1;rounded=0;exitX=1;exitY=0.5;exitDx=0;exitDy=0;entryX=0;entryY=0;entryDx=0;entryDy=0;" parent="1" source="4yEKGmQm7jMLqb5Qw2JC-9" target="4yEKGmQm7jMLqb5Qw2JC-1" edge="1">
          <mxGeometry width="50" height="50" relative="1" as="geometry">
            <mxPoint x="-520" y="-650" as="sourcePoint" />
            <mxPoint x="-470" y="-700" as="targetPoint" />
            <Array as="points">
              <mxPoint x="-560" y="-725" />
              <mxPoint x="-560" y="-644" />
            </Array>
          </mxGeometry>
        </mxCell>
        <mxCell id="IzAd-LBRWQO8ilangb6x-47" value="" style="endArrow=none;html=1;rounded=0;exitX=0.5;exitY=1;exitDx=0;exitDy=0;entryX=0.5;entryY=0;entryDx=0;entryDy=0;" parent="1" source="IzAd-LBRWQO8ilangb6x-51" target="YsWxQZR77V_EV7mCkCUQ-6" edge="1">
          <mxGeometry width="50" height="50" relative="1" as="geometry">
            <mxPoint x="-1980" y="-1150" as="sourcePoint" />
            <mxPoint x="-1930" y="-1200" as="targetPoint" />
            <Array as="points" />
          </mxGeometry>
        </mxCell>
        <mxCell id="IzAd-LBRWQO8ilangb6x-48" value="" style="endArrow=none;html=1;rounded=0;exitX=1;exitY=0.5;exitDx=0;exitDy=0;entryX=0;entryY=0.5;entryDx=0;entryDy=0;" parent="1" source="5MeeMpIY68B_WioQ4X_y-15" target="5MeeMpIY68B_WioQ4X_y-6" edge="1">
          <mxGeometry width="50" height="50" relative="1" as="geometry">
            <mxPoint x="-2480" y="-140" as="sourcePoint" />
            <mxPoint x="-2430" y="-190" as="targetPoint" />
          </mxGeometry>
        </mxCell>
        <mxCell id="IzAd-LBRWQO8ilangb6x-49" value="" style="endArrow=none;html=1;rounded=0;exitX=1;exitY=0.5;exitDx=0;exitDy=0;entryX=0.5;entryY=0;entryDx=0;entryDy=0;" parent="1" source="5MeeMpIY68B_WioQ4X_y-6" target="4yEKGmQm7jMLqb5Qw2JC-175" edge="1">
          <mxGeometry width="50" height="50" relative="1" as="geometry">
            <mxPoint x="-2050" y="-210" as="sourcePoint" />
            <mxPoint x="-1600" y="-30" as="targetPoint" />
            <Array as="points">
              <mxPoint x="-1610" y="-182" />
            </Array>
          </mxGeometry>
        </mxCell>
        <mxCell id="IzAd-LBRWQO8ilangb6x-50" value="tiene" style="rhombus;whiteSpace=wrap;html=1;" parent="1" vertex="1">
          <mxGeometry x="-1650" y="-222" width="80" height="80" as="geometry" />
        </mxCell>
        <mxCell id="IzAd-LBRWQO8ilangb6x-52" value="" style="endArrow=none;html=1;rounded=0;exitX=1;exitY=0.5;exitDx=0;exitDy=0;entryX=0.5;entryY=0;entryDx=0;entryDy=0;" parent="1" source="4yEKGmQm7jMLqb5Qw2JC-95" target="IzAd-LBRWQO8ilangb6x-51" edge="1">
          <mxGeometry width="50" height="50" relative="1" as="geometry">
            <mxPoint x="-2170" y="-1194" as="sourcePoint" />
            <mxPoint x="-1025" y="190" as="targetPoint" />
            <Array as="points">
              <mxPoint x="-1025" y="-1194" />
            </Array>
          </mxGeometry>
        </mxCell>
        <mxCell id="IzAd-LBRWQO8ilangb6x-51" value="tiene" style="rhombus;whiteSpace=wrap;html=1;" parent="1" vertex="1">
          <mxGeometry x="-1065" y="-1234" width="80" height="80" as="geometry" />
        </mxCell>
        <mxCell id="IzAd-LBRWQO8ilangb6x-53" value="1" style="text;html=1;align=center;verticalAlign=middle;resizable=0;points=[];autosize=1;strokeColor=none;fillColor=none;" parent="1" vertex="1">
          <mxGeometry x="-1055" y="158" width="30" height="30" as="geometry" />
        </mxCell>
        <mxCell id="IzAd-LBRWQO8ilangb6x-54" value="1" style="text;html=1;align=center;verticalAlign=middle;resizable=0;points=[];autosize=1;strokeColor=none;fillColor=none;" parent="1" vertex="1">
          <mxGeometry x="-1025" y="158" width="30" height="30" as="geometry" />
        </mxCell>
        <mxCell id="IzAd-LBRWQO8ilangb6x-55" value="N" style="text;html=1;align=center;verticalAlign=middle;resizable=0;points=[];autosize=1;strokeColor=none;fillColor=none;" parent="1" vertex="1">
          <mxGeometry x="-2165" y="-1192" width="30" height="30" as="geometry" />
        </mxCell>
        <mxCell id="IzAd-LBRWQO8ilangb6x-56" value="1" style="text;html=1;align=center;verticalAlign=middle;resizable=0;points=[];autosize=1;strokeColor=none;fillColor=none;" parent="1" vertex="1">
          <mxGeometry x="-2165" y="-1222" width="30" height="30" as="geometry" />
        </mxCell>
      </root>
    </mxGraphModel>
  </diagram>
</mxfile>
